<?xml version="1.0" standalone="no"?>
<!DOCTYPE svg PUBLIC "-//W3C//DTD SVG 1.1//EN" "http://www.w3.org/Graphics/SVG/1.1/DTD/svg11.dtd" >
<svg xmlns="http://www.w3.org/2000/svg" xmlns:xlink="http://www.w3.org/1999/xlink" version="1.1">
<metadata>
Created by FontForge 20170924 at Mon Apr 30 12:42:00 2007
 By www-data
Copyright (c) 1988, 1990, 1993, 1996, 1997, 1998, 1999 Adobe Systems Incorporated.  All Rights Reserved.Times New Roman is a trademark of the Monotype Corporation, registered in the US Patent and Trademark Office and may be registered in certain other jurisdictions.
</metadata>
<defs>
<font id="TimesNewRomanPS-BoldMT" horiz-adv-x="500" >
  <font-face 
    font-family="Times New Roman PS"
    font-weight="700"
    font-stretch="normal"
    units-per-em="1000"
    panose-1="0 0 0 0 0 0 0 0 0 0"
    ascent="800"
    descent="-200"
    x-height="456"
    cap-height="662"
    bbox="-180 -250 1008 889"
    underline-thickness="50"
    underline-position="-100"
    stemh="34"
    stemv="137"
    unicode-range="U+0020-FB02"
  />
<missing-glyph horiz-adv-x="250" 
 />
    <glyph glyph-name=".notdef" horiz-adv-x="250" 
 />
    <glyph glyph-name="space" unicode=" " horiz-adv-x="250" 
 />
    <glyph glyph-name="exclam" unicode="!" horiz-adv-x="333" 
d="M177 215h-22c0 85 -71 295 -71 379c0 49 34 83 82 83s82 -34 82 -83c0 -84 -71 -294 -71 -379zM166 -14c-44 0 -79 35 -79 79s35 79 79 79s79 -35 79 -79s-35 -79 -79 -79z" />
    <glyph glyph-name="quotedbl" unicode="&#x22;" horiz-adv-x="555" 
d="M169 352h-22c-52 193 -61 231 -61 253c0 41 32 72 72 72s72 -31 72 -72c0 -22 -9 -60 -61 -253zM408 352h-22c-52 193 -61 231 -61 253c0 41 32 72 72 72s72 -31 72 -72c0 -22 -9 -60 -61 -253z" />
    <glyph glyph-name="numbersign" unicode="#" 
d="M45 -14l42 208h-67v64h80l29 143h-109v64h121l43 211h64l-43 -211h143l43 211h64l-43 -211h68v-64h-80l-29 -143h109v-64h-122l-42 -208h-64l42 208h-143l-42 -208h-64zM164 258h143l29 143h-143z" />
    <glyph glyph-name="dollar" unicode="$" 
d="M443 615v-141h-18c-20 76 -68 140 -149 158v-215c97 -61 192 -113 192 -232c0 -111 -87 -180 -192 -186v-57h-42v53c-63 0 -126 13 -184 37v157h21c13 -91 68 -155 163 -159v244c-146 86 -195 139 -195 221c0 104 102 164 195 171v23h42v-23c59 -4 116 -24 167 -51z
M234 444v188c-49 0 -91 -34 -91 -81c0 -50 55 -83 91 -107zM276 244v-213c49 8 81 42 81 92c0 56 -39 89 -81 121z" />
    <glyph glyph-name="percent" unicode="%" horiz-adv-x="1000" 
d="M766 -14c-101 0 -164 85 -164 178s63 178 164 178s164 -85 164 -178s-63 -178 -164 -178zM766 14c42 0 42 100 42 150s0 150 -42 150s-42 -100 -42 -150s0 -150 42 -150zM234 320c-101 0 -164 85 -164 178s63 178 164 178s164 -85 164 -178s-63 -178 -164 -178zM234 348
c42 0 42 100 42 150s0 150 -42 150s-42 -100 -42 -150s0 -150 42 -150zM764 677l-460 -692h-66l460 692h66z" />
    <glyph glyph-name="ampersand" unicode="&#x26;" horiz-adv-x="833" 
d="M569 395h203v-18c-57 -5 -78 -45 -103 -90s-54 -87 -89 -127c31 -28 80 -75 124 -75c29 0 52 23 66 47l19 -11c-37 -69 -80 -135 -167 -135c-62 0 -110 37 -153 76c-66 -45 -143 -76 -223 -76c-184 0 -206 142 -206 166c0 121 104 183 204 222c-16 37 -25 78 -25 118
c0 112 85 185 194 185c67 0 150 -36 150 -113c0 -98 -93 -139 -172 -168c43 -77 102 -145 162 -209c31 34 72 89 72 137c0 32 -26 52 -56 53v18zM375 425c45 16 86 38 86 92c0 46 -21 118 -77 118c-37 0 -54 -36 -54 -68c0 -47 26 -99 45 -142zM258 343
c-46 -17 -79 -47 -79 -99c0 -84 81 -184 169 -184c22 0 55 10 90 33c-72 73 -135 157 -180 250z" />
    <glyph glyph-name="quoteright" unicode="&#x2019;" horiz-adv-x="333" 
d="M92 352v21c58 22 108 78 108 142c0 7 -2 18 -11 18c-8 0 -22 -12 -42 -12c-41 0 -73 35 -73 75c0 46 41 81 86 81c64 0 99 -62 99 -120c0 -104 -69 -179 -167 -205z" />
    <glyph glyph-name="parenleft" unicode="(" horiz-adv-x="333" 
d="M321 677v-22c-141 -83 -150 -269 -150 -417s9 -334 150 -417v-22c-181 61 -281 255 -281 439s100 378 281 439z" />
    <glyph glyph-name="parenright" unicode=")" horiz-adv-x="333" 
d="M12 -201v22c141 83 150 269 150 417s-9 334 -150 417v22c181 -61 281 -255 281 -439s-100 -378 -281 -439z" />
    <glyph glyph-name="asterisk" unicode="*" 
d="M380 468h-116c42 -56 125 -53 125 -122c0 -25 -24 -45 -48 -45c-69 0 -45 93 -91 158c-46 -65 -22 -158 -91 -158c-24 0 -48 20 -48 45c0 69 83 66 125 122h-116c-30 0 -64 17 -64 51c0 29 21 50 50 50c52 0 80 -71 134 -85c0 61 -41 102 -41 136c0 28 22 57 51 57
s51 -29 51 -57c0 -34 -41 -75 -41 -136c54 14 82 85 134 85c29 0 50 -21 50 -50c0 -34 -34 -51 -64 -51z" />
    <glyph glyph-name="plus" unicode="+" horiz-adv-x="570" 
d="M18 363h235v235h64v-235h235v-64h-235v-235h-64v235h-235v64z" />
    <glyph glyph-name="comma" unicode="," horiz-adv-x="250" 
d="M51 -177v21c58 22 108 78 108 142c0 7 -2 18 -11 18c-8 0 -22 -12 -42 -12c-41 0 -73 35 -73 75c0 46 41 81 86 81c64 0 99 -62 99 -120c0 -104 -69 -179 -167 -205z" />
    <glyph glyph-name="hyphen" unicode="-" horiz-adv-x="333" 
d="M309 179h-285v101h285v-101z" />
    <glyph glyph-name="period" unicode="." horiz-adv-x="250" 
d="M125 -14c-45 0 -81 36 -81 81s36 81 81 81s81 -36 81 -81s-36 -81 -81 -81z" />
    <glyph glyph-name="slash" unicode="/" horiz-adv-x="278" 
d="M281 677l-214 -692h-70l214 692h70z" />
    <glyph glyph-name="zero" unicode="0" 
d="M250 -14c-110 0 -214 114 -214 345s104 345 214 345s214 -114 214 -345s-104 -345 -214 -345zM250 20c65 0 66 62 66 311s-1 311 -66 311s-66 -62 -66 -311s1 -311 66 -311z" />
    <glyph glyph-name="one" unicode="1" 
d="M326 676v-531c0 -105 0 -127 97 -127v-18h-349v18c109 0 109 22 109 127v325c0 55 0 92 -48 92c-23 0 -40 -6 -61 -15l-8 17l243 112h17z" />
    <glyph glyph-name="two" unicode="2" 
d="M414 0h-390v11c246 294 256 355 256 425c0 69 -40 125 -112 125c-49 0 -93 -33 -114 -75l-18 6c26 99 92 184 204 184c80 0 183 -58 183 -168c0 -108 -68 -188 -253 -379h160c67 0 75 6 103 63h18z" />
    <glyph glyph-name="three" unicode="3" 
d="M59 506l-18 6c37 90 108 164 212 164c81 0 158 -55 158 -142c0 -55 -38 -104 -86 -129c73 -32 117 -89 117 -170c0 -121 -96 -249 -272 -249c-49 0 -154 9 -154 77c0 30 23 55 54 55c56 0 97 -88 172 -88c55 0 90 48 90 100c0 102 -86 186 -184 202v17
c72 11 131 63 131 129c0 56 -46 100 -103 100c-52 0 -90 -29 -117 -72z" />
    <glyph glyph-name="four" unicode="4" 
d="M72 248h195v265h-2zM25 250l313 426h61v-428h61v-100h-61v-148h-132v148h-242v102z" />
    <glyph glyph-name="five" unicode="5" 
d="M152 662h310l-49 -126h-261l-25 -66c145 0 334 -71 334 -245c0 -113 -95 -239 -272 -239c-49 0 -153 16 -153 81c0 28 27 52 54 52c67 0 119 -83 188 -83c53 0 98 43 98 97c0 148 -182 196 -301 196h-41z" />
    <glyph glyph-name="six" unicode="6" 
d="M470 676v-14c-149 -33 -245 -117 -275 -269c28 21 64 31 98 31c118 0 176 -98 176 -206c0 -124 -81 -232 -211 -232c-147 0 -221 140 -221 271c0 243 188 419 433 419zM189 354c-4 -29 -4 -54 -4 -96c0 -57 8 -238 88 -238c55 0 56 98 56 134c0 152 -31 215 -90 215
c-18 0 -34 -8 -50 -15z" />
    <glyph glyph-name="seven" unicode="7" 
d="M177 -14l180 547h-124c-67 0 -154 -2 -181 -77h-18l48 206h394l-222 -676h-77z" />
    <glyph glyph-name="eight" unicode="8" 
d="M304 399c26 34 35 79 35 122c0 54 -18 125 -84 125c-46 0 -78 -41 -78 -85c0 -74 70 -126 127 -162zM206 296c-36 -27 -47 -100 -47 -141c0 -59 15 -139 89 -139c56 0 85 49 85 100c0 78 -67 139 -127 180zM340 374c70 -49 125 -103 125 -194c0 -127 -108 -194 -224 -194
c-153 0 -206 96 -206 167c0 88 60 134 134 166c-68 53 -124 94 -124 188c0 57 47 169 215 169c108 0 194 -58 194 -152c0 -76 -49 -120 -114 -150z" />
    <glyph glyph-name="nine" unicode="9" 
d="M31 -14v14c149 33 245 117 275 269c-28 -21 -64 -31 -98 -31c-118 0 -176 98 -176 206c0 124 81 232 211 232c147 0 221 -140 221 -271c0 -243 -188 -419 -433 -419zM312 308c4 29 4 54 4 96c0 57 -8 238 -88 238c-55 0 -56 -98 -56 -134c0 -152 31 -215 90 -215
c18 0 34 8 50 15z" />
    <glyph glyph-name="colon" unicode=":" horiz-adv-x="333" 
d="M167 -14c-45 0 -81 36 -81 81s36 81 81 81s81 -36 81 -81s-36 -81 -81 -81zM167 308c-45 0 -81 36 -81 81s36 81 81 81s81 -36 81 -81s-36 -81 -81 -81z" />
    <glyph glyph-name="semicolon" unicode=";" horiz-adv-x="333" 
d="M92 -177v21c58 22 108 78 108 142c0 7 -2 18 -11 18c-8 0 -22 -12 -42 -12c-41 0 -73 35 -73 75c0 46 41 81 86 81c64 0 99 -62 99 -120c0 -104 -69 -179 -167 -205zM167 308c-45 0 -81 36 -81 81s36 81 81 81s81 -36 81 -81s-36 -81 -81 -81z" />
    <glyph glyph-name="less" unicode="&#x3c;" horiz-adv-x="570" 
d="M552 91l-534 220v40l534 220v-70l-413 -170l413 -170v-70z" />
    <glyph glyph-name="equal" unicode="=" horiz-adv-x="570" 
d="M18 443h534v-64h-534v64zM18 285h534v-64h-534v64z" />
    <glyph glyph-name="greater" unicode="&#x3e;" horiz-adv-x="570" 
d="M18 571l534 -220v-40l-534 -220v70l413 170l-413 170v70z" />
    <glyph glyph-name="question" unicode="?" 
d="M237 216h-20v19c0 133 79 147 79 281c0 57 -19 127 -88 127c-19 0 -56 -13 -56 -36c0 -21 31 -43 31 -87c0 -33 -25 -58 -57 -58c-41 0 -65 33 -65 71c0 100 103 144 188 144c159 0 195 -95 195 -163c0 -74 -62 -123 -124 -164c-58 -39 -79 -61 -83 -134zM231 -14
c-44 0 -79 35 -79 79s35 79 79 79s79 -35 79 -79s-35 -79 -79 -79z" />
    <glyph glyph-name="at" unicode="@" horiz-adv-x="930" 
d="M577 456h119l-86 -295c-7 -23 -18 -62 -18 -86c0 -23 18 -41 40 -41c78 0 210 138 210 302c0 187 -129 310 -315 310c-283 0 -429 -232 -429 -449c0 -226 157 -386 384 -386c171 0 341 104 398 270h29c-71 -186 -231 -297 -430 -297c-249 0 -433 177 -433 428
c0 273 203 465 474 465c172 0 349 -103 349 -328c0 -169 -105 -349 -292 -349c-56 0 -99 27 -99 88c0 22 6 45 11 64l-2 2c-31 -56 -90 -154 -165 -154c-61 0 -83 55 -83 109c0 191 159 361 250 361c48 0 66 -33 71 -76h2zM538 370c0 20 -7 66 -35 66
c-62 0 -138 -224 -138 -300c0 -16 6 -47 28 -47c51 0 145 167 145 281z" />
    <glyph glyph-name="A" unicode="A" horiz-adv-x="722" 
d="M416 189h-232l-23 -53c-10 -24 -19 -44 -19 -63c0 -48 38 -52 88 -55v-18h-221v18c68 5 97 87 121 140l231 518h10l243 -553c19 -43 43 -105 99 -105v-18h-321v18c28 0 78 0 78 32c0 17 -4 24 -10 39zM401 225l-99 227l-101 -227h200z" />
    <glyph glyph-name="B" unicode="B" horiz-adv-x="667" 
d="M268 624v-260c122 0 170 48 170 131c0 30 -12 129 -142 129h-28zM268 326v-225c0 -46 10 -63 56 -63c82 0 137 58 137 138c0 40 -10 150 -163 150h-30zM114 125v412c0 81 0 107 -94 107v18h348c234 0 234 -144 234 -164c0 -92 -79 -129 -152 -146v-2
c94 -18 187 -58 187 -170c0 -68 -53 -180 -291 -180h-326v18c94 0 94 26 94 107z" />
    <glyph glyph-name="C" unicode="C" horiz-adv-x="722" 
d="M669 677v-229h-18c-21 104 -106 186 -215 186c-132 0 -219 -118 -219 -295c0 -221 85 -308 218 -308c97 0 163 50 223 121v-57c-73 -78 -152 -110 -258 -110c-218 0 -359 141 -359 334c0 198 165 358 362 358c53 0 99 -11 148 -30c15 -6 41 -18 58 -18c26 0 39 25 42 48
h18z" />
    <glyph glyph-name="D" unicode="D" horiz-adv-x="722" 
d="M114 125v412c0 81 0 107 -94 107v18h312c296 0 355 -210 355 -331c0 -159 -85 -331 -365 -331h-302v18c94 0 94 26 94 107zM273 624v-540c0 -37 18 -46 53 -46c159 0 185 162 185 288c0 232 -99 298 -197 298h-41z" />
    <glyph glyph-name="E" unicode="E" horiz-adv-x="667" 
d="M273 624v-270c115 0 125 66 141 157h18v-350h-18c-16 91 -26 157 -141 157v-178c0 -84 0 -102 69 -102c94 0 212 0 262 172h18l-30 -210h-572v18c94 0 94 26 94 107v412c0 81 0 107 -94 107v18h554v-196h-18c-29 148 -97 158 -228 158h-55z" />
    <glyph glyph-name="F" unicode="F" horiz-adv-x="611" 
d="M273 318v-193c0 -81 0 -107 94 -107v-18h-347v18c94 0 94 26 94 107v412c0 81 0 107 -94 107v18h559v-196h-18c-29 148 -97 158 -228 158h-60v-270c132 0 149 58 161 142h18v-335h-18c-12 99 -29 157 -161 157z" />
    <glyph glyph-name="G" unicode="G" horiz-adv-x="778" 
d="M688 677v-233h-18c-37 109 -126 195 -245 195c-170 0 -212 -172 -212 -310c0 -144 33 -306 211 -306c37 0 70 6 108 20v110c0 81 0 107 -94 107v18h327v-18c-79 0 -79 -26 -79 -107v-113c-84 -51 -220 -55 -282 -55c-214 0 -367 143 -367 337c0 207 163 355 366 355
c73 0 116 -12 147 -24s50 -24 71 -24c27 0 40 27 49 48h18z" />
    <glyph glyph-name="H" unicode="H" horiz-adv-x="778" 
d="M273 318v-193c0 -81 0 -107 94 -107v-18h-347v18c94 0 94 26 94 107v412c0 81 0 107 -94 107v18h347v-18c-94 0 -94 -26 -94 -107v-176h232v176c0 81 0 107 -94 107v18h347v-18c-94 0 -94 -26 -94 -107v-412c0 -81 0 -107 94 -107v-18h-347v18c94 0 94 26 94 107v193
h-232z" />
    <glyph glyph-name="I" unicode="I" horiz-adv-x="389" 
d="M274 537v-412c0 -81 0 -107 94 -107v-18h-347v18c94 0 94 26 94 107v412c0 81 0 107 -94 107v18h347v-18c-94 0 -94 -26 -94 -107z" />
    <glyph glyph-name="J" unicode="J" 
d="M142 644v18h353v-18c-94 0 -94 -26 -94 -107v-353c0 -146 -91 -199 -223 -199c-66 0 -167 57 -167 140c0 44 29 78 74 78c36 0 68 -28 68 -65c0 -46 -32 -54 -32 -78c0 -26 39 -35 59 -35c38 0 62 25 62 95v417c0 81 0 107 -100 107z" />
    <glyph glyph-name="K" unicode="K" horiz-adv-x="778" 
d="M298 314l-25 -20v-169c0 -81 0 -107 82 -107v-18h-335v18c94 0 94 26 94 107v412c0 81 0 107 -94 107v18h331v-18c-78 0 -78 -26 -78 -107v-194l236 191c45 37 61 54 61 74c0 32 -39 36 -74 36v18h258v-18c-44 0 -71 -20 -120 -60l-219 -176l225 -282
c54 -68 90 -108 147 -108v-18h-344v18c17 0 52 3 52 29c0 23 -38 68 -53 86z" />
    <glyph glyph-name="L" unicode="L" horiz-adv-x="667" 
d="M633 232l-25 -232h-588v18c94 0 94 26 94 107v412c0 81 0 107 -94 107v18h354v-18c-101 0 -101 -26 -101 -107v-398c0 -101 7 -101 112 -101c131 0 171 22 228 194h20z" />
    <glyph glyph-name="M" unicode="M" horiz-adv-x="944" 
d="M475 225l179 437h270v-18c-94 0 -94 -26 -94 -107v-412c0 -81 0 -107 94 -107v-18h-347v18c94 0 94 26 94 107v477l-2 -2l-251 -600h-12l-256 593l-2 2v-495c0 -55 27 -82 94 -82v-18h-225v18c67 0 94 27 94 82v437c0 81 0 107 -94 107v18h271z" />
    <glyph glyph-name="N" unicode="N" horiz-adv-x="722" 
d="M249 662l324 -406h2v306c0 55 -27 82 -94 82v18h225v-18c-67 0 -94 -27 -94 -82v-577h-16l-446 549h-2v-434c0 -55 27 -82 94 -82v-18h-225v18c67 0 94 27 94 82v483c-32 41 -48 61 -96 61v18h234z" />
    <glyph glyph-name="O" unicode="O" horiz-adv-x="778" 
d="M389 -15c-202 0 -352 141 -352 346s150 346 352 346s352 -141 352 -346s-150 -346 -352 -346zM389 23c154 0 176 191 176 308s-22 308 -176 308s-176 -191 -176 -308s22 -308 176 -308z" />
    <glyph glyph-name="P" unicode="P" horiz-adv-x="611" 
d="M268 624v-287h21c95 0 127 60 127 148c0 87 -39 139 -129 139h-19zM268 299v-174c0 -81 0 -107 94 -107v-18h-342v18c94 0 94 26 94 107v412c0 81 0 107 -94 107v18h312c142 0 248 -60 248 -179c0 -95 -70 -184 -274 -184h-38z" />
    <glyph glyph-name="Q" unicode="Q" horiz-adv-x="778" 
d="M706 -132v-30c-41 -12 -82 -19 -129 -19c-121 0 -227 60 -272 175c-160 31 -268 164 -268 337c0 205 150 346 352 346s352 -141 352 -346c0 -177 -111 -306 -265 -337c27 -88 112 -132 188 -132c14 0 29 4 42 6zM389 23c154 0 176 191 176 308s-22 308 -176 308
s-176 -191 -176 -308s22 -308 176 -308z" />
    <glyph glyph-name="R" unicode="R" horiz-adv-x="722" 
d="M268 624v-288h48c118 0 154 58 154 139c0 105 -46 149 -138 149h-64zM268 302v-177c0 -81 0 -107 94 -107v-18h-342v18c94 0 94 26 94 107v412c0 81 0 107 -94 107v18h366c150 0 248 -58 248 -186c0 -86 -68 -147 -150 -163l171 -238c26 -37 40 -57 79 -57v-18h-208
l-213 302h-45z" />
    <glyph glyph-name="S" unicode="S" horiz-adv-x="556" 
d="M475 677v-220h-18c-11 89 -91 182 -186 182c-55 0 -111 -27 -111 -88c0 -135 358 -141 358 -362c0 -125 -109 -204 -227 -204c-52 0 -85 10 -131 30c-10 4 -26 9 -37 9c-23 0 -43 -19 -50 -39h-18v250h18c15 -107 99 -216 214 -216c57 0 120 34 120 97
c0 153 -353 147 -353 371c0 112 96 190 203 190c48 0 79 -9 121 -30c14 -7 29 -15 45 -15c27 0 29 24 34 45h18z" />
    <glyph glyph-name="T" unicode="T" horiz-adv-x="667" 
d="M467 624h-54v-499c0 -81 0 -107 94 -107v-18h-347v18c94 0 94 26 94 107v499h-54c-76 0 -118 -24 -145 -141h-18v179h593v-179h-18c-27 117 -69 141 -145 141z" />
    <glyph glyph-name="U" unicode="U" horiz-adv-x="722" 
d="M479 644v18h228v-18c-89 0 -93 -32 -93 -114v-290c0 -94 -26 -255 -258 -255c-166 0 -245 79 -245 227v325c0 81 0 107 -94 107v18h347v-18c-94 0 -94 -26 -94 -107v-359c0 -74 24 -144 138 -144c126 0 164 108 164 198v298c0 82 -4 114 -93 114z" />
    <glyph glyph-name="V" unicode="V" horiz-adv-x="722" 
d="M714 662v-18c-55 -8 -77 -46 -121 -143l-233 -516h-16l-262 605c-9 21 -24 51 -73 54v18h318v-18c-40 0 -81 0 -81 -34c0 -16 14 -45 20 -60l152 -353l142 319c15 33 23 58 23 78c0 44 -51 50 -87 50v18h218z" />
    <glyph glyph-name="W" unicode="W" horiz-adv-x="1000" 
d="M991 662v-18c-44 0 -59 -50 -77 -97l-215 -562h-18l-165 427l-181 -427h-18l-225 559c-21 53 -37 100 -83 100v18h287v-18c-25 0 -58 -4 -58 -37c0 -16 11 -43 17 -58l137 -339l104 251l-34 90c-24 62 -41 93 -103 93v18h321v-18c-29 0 -70 -1 -70 -35
c0 -16 11 -39 16 -53l126 -330l104 273c10 27 29 71 29 99c0 41 -33 46 -66 46v18h172z" />
    <glyph glyph-name="X" unicode="X" horiz-adv-x="722" 
d="M424 388l176 -261c41 -61 70 -109 117 -109v-18h-322v18c20 0 60 3 60 35c0 16 -18 40 -27 53l-107 159l-93 -114c-14 -18 -53 -62 -53 -85c0 -12 0 -48 88 -48v-18h-254v18c75 5 123 73 167 127l124 151l-191 281c-30 44 -50 67 -86 67v18h329v-18c-37 0 -68 0 -68 -34
c0 -17 11 -28 20 -41l99 -151l62 76c17 21 62 76 62 102c0 41 -37 48 -74 48v18h244v-18c-30 0 -66 -11 -90 -39z" />
    <glyph glyph-name="Y" unicode="Y" horiz-adv-x="722" 
d="M441 274v-149c0 -90 0 -107 107 -107v-18h-373v18c107 0 107 17 107 107v121l-166 300c-44 80 -57 98 -106 98v18h317v-18c-32 0 -65 0 -65 -31c0 -16 21 -52 29 -66l129 -236l132 222c10 17 31 51 31 71c0 34 -44 40 -73 40v18h201v-18c-57 0 -83 -58 -117 -115z" />
    <glyph glyph-name="Z" unicode="Z" horiz-adv-x="667" 
d="M610 662l-390 -624h140c116 0 226 22 272 201h18l-27 -239h-607l388 624h-154c-94 0 -158 -100 -163 -156h-18l18 194h523z" />
    <glyph glyph-name="bracketleft" unicode="[" horiz-adv-x="333" 
d="M95 -181v843h206v-18c-79 0 -88 -6 -88 -101v-605c0 -95 9 -101 88 -101v-18h-206z" />
    <glyph glyph-name="backslash" unicode="\" horiz-adv-x="278" 
d="M-3 677h70l214 -692h-70z" />
    <glyph glyph-name="bracketright" unicode="]" horiz-adv-x="333" 
d="M238 662v-843h-206v18c79 0 88 6 88 101v605c0 95 -9 101 -88 101v18h206z" />
    <glyph glyph-name="asciicircum" unicode="^" horiz-adv-x="581" 
d="M72 324l201 352h40l197 -352h-76l-143 251l-143 -251h-76z" />
    <glyph glyph-name="underscore" unicode="_" 
d="M508 -125h-516v50h516v-50z" />
    <glyph glyph-name="quoteleft" unicode="&#x2018;" horiz-adv-x="333" 
d="M241 677v-21c-58 -22 -108 -78 -108 -142c0 -7 2 -18 11 -18c8 0 22 12 42 12c41 0 73 -35 73 -75c0 -46 -41 -81 -86 -81c-64 0 -99 62 -99 120c0 104 69 179 167 205z" />
    <glyph glyph-name="a" unicode="a" 
d="M285 289v81c0 48 -36 62 -62 62c-21 0 -64 -8 -64 -35c0 -19 32 -31 32 -63c0 -38 -30 -59 -66 -59c-35 0 -71 25 -71 63c0 92 127 132 202 132c114 0 166 -56 166 -154v-222c0 -24 0 -46 21 -46c12 0 19 9 26 18l14 -11c-25 -40 -60 -69 -109 -69c-48 0 -85 23 -89 73
c-39 -36 -93 -73 -149 -73c-52 0 -91 37 -91 94c0 82 55 122 240 209zM285 95v153c-43 -24 -108 -73 -108 -127c0 -31 22 -53 53 -53c23 0 38 13 55 27z" />
    <glyph glyph-name="b" unicode="b" horiz-adv-x="556" 
d="M213 367v-231c0 -52 8 -116 74 -116c70 0 85 90 85 217c0 57 0 178 -80 178c-32 0 -60 -23 -79 -48zM213 662v-252c31 36 76 60 124 60c89 0 178 -70 178 -223c0 -133 -77 -261 -222 -261c-50 0 -88 15 -124 50l-75 -50h-18v569c0 53 0 89 -55 89v18h192z" />
    <glyph glyph-name="c" unicode="c" horiz-adv-x="444" 
d="M404 118l15 -12c-33 -69 -102 -120 -181 -120c-129 0 -202 109 -202 242c0 128 77 242 214 242c68 0 156 -36 156 -116c0 -35 -26 -60 -61 -60c-54 0 -67 41 -71 87c-3 24 -11 55 -41 55c-55 0 -65 -98 -65 -137c0 -87 31 -235 141 -235c40 0 70 26 95 54z" />
    <glyph glyph-name="d" unicode="d" horiz-adv-x="556" 
d="M480 662v-552c0 -35 0 -68 55 -68v-18l-174 -38h-18v70l-2 -2c-30 -35 -64 -68 -119 -68c-127 0 -181 123 -181 234c0 162 89 250 188 250c50 0 82 -20 114 -57v142c0 53 0 89 -66 89v18h203zM343 112v240c-18 36 -49 70 -91 70c-67 0 -68 -134 -68 -181
c0 -54 2 -196 79 -196c36 0 65 38 80 67z" />
    <glyph glyph-name="e" unicode="e" horiz-adv-x="444" 
d="M418 243h-250c0 -73 40 -182 131 -182c49 0 79 37 103 75l16 -11c-40 -81 -90 -139 -187 -139c-137 0 -195 115 -195 242c0 128 77 242 214 242c110 0 170 -120 168 -227zM165 277h133c0 51 0 159 -62 159c-58 0 -71 -86 -71 -159z" />
    <glyph glyph-name="f" unicode="f" horiz-adv-x="333" 
d="M234 408v-303c0 -55 0 -87 64 -87v-18h-266v18c65 0 65 32 65 87v303h-65v48h65v43c0 117 77 178 189 178c78 0 121 -33 121 -71c0 -36 -34 -55 -66 -55c-25 0 -55 14 -55 42c0 11 4 21 4 32c0 15 -9 24 -24 24c-32 0 -32 -31 -32 -69v-124h67v-48h-67z" />
    <glyph glyph-name="g" unicode="g" 
d="M327 452h154v-55h-87c28 -26 44 -59 44 -107c0 -76 -80 -151 -188 -151h-58c-35 0 -48 -30 -48 -48c0 -40 30 -40 114 -40c110 0 224 0 224 -119c0 -50 -36 -148 -235 -148c-59 0 -209 10 -209 92c0 41 45 60 76 67v2c-32 14 -60 46 -60 86c0 59 57 102 104 120v2
c-66 20 -120 91 -120 150c0 104 96 167 193 167c33 0 65 -6 96 -18zM175 296c0 -98 28 -128 66 -128c46 0 67 39 67 133c0 113 -30 140 -66 140c-34 0 -67 -20 -67 -145zM402 -113c0 31 -22 46 -178 46c-87 0 -104 -15 -104 -49c0 -61 95 -66 138 -66c42 0 144 9 144 69z
" />
    <glyph glyph-name="h" unicode="h" horiz-adv-x="556" 
d="M223 662v-264c34 38 78 72 132 72c101 0 125 -76 125 -182v-183c0 -45 0 -87 50 -87v-18h-232v18c45 0 45 42 45 87v186c0 67 0 113 -44 113c-31 0 -60 -33 -76 -60v-239c0 -45 0 -87 45 -87v-18h-232v18c50 0 50 42 50 87v450c0 53 0 89 -55 89v18h192z" />
    <glyph glyph-name="i" unicode="i" horiz-adv-x="278" 
d="M211 456v-351c0 -55 0 -87 54 -87v-18h-246v18c55 0 55 32 55 87v244c0 53 0 89 -55 89v18h192zM67 602c0 41 34 75 75 75s75 -34 75 -75s-34 -75 -75 -75s-75 34 -75 75z" />
    <glyph glyph-name="j" unicode="j" horiz-adv-x="333" 
d="M242 456v-495c-1 -102 -39 -177 -151 -177c-67 0 -119 30 -119 83c0 28 21 54 50 54c30 0 38 -25 38 -59c0 -30 8 -46 28 -46c21 0 27 21 27 38c0 40 -10 81 -10 134v361c0 53 0 89 -55 89v18h192zM98 602c0 41 34 75 75 75s75 -34 75 -75s-34 -75 -75 -75s-75 34 -75 75
z" />
    <glyph glyph-name="k" unicode="k" horiz-adv-x="556" 
d="M223 662v-436l111 109c29 28 44 47 44 68c0 29 -30 33 -53 35v18h205v-18c-23 0 -53 -5 -86 -38l-101 -99l151 -222c19 -26 39 -61 75 -61v-18h-235v18c13 0 29 5 29 19c0 13 -19 39 -27 51l-84 122l-29 -29v-76c0 -55 0 -87 49 -87v-18h-241v18c55 0 55 32 55 87v450
c0 53 0 89 -55 89v18h192z" />
    <glyph glyph-name="l" unicode="l" horiz-adv-x="278" 
d="M211 662v-557c0 -55 0 -87 54 -87v-18h-246v18c55 0 55 32 55 87v450c0 53 0 89 -55 89v18h192z" />
    <glyph glyph-name="m" unicode="m" horiz-adv-x="833" 
d="M223 456v-58c38 42 79 72 140 72c56 0 102 -29 119 -83c38 45 88 83 150 83c101 0 125 -76 125 -182v-183c0 -45 0 -87 50 -87v-18h-237v18c50 0 50 42 50 87v186c0 64 0 115 -44 115c-38 0 -66 -33 -86 -62v-239c0 -45 0 -87 50 -87v-18h-237v18c50 0 50 42 50 87v186
c0 64 0 115 -44 115c-38 0 -66 -33 -86 -62v-239c0 -45 0 -87 50 -87v-18h-237v18c50 0 50 42 50 87v244c0 53 0 89 -55 89v18h192z" />
    <glyph glyph-name="n" unicode="n" horiz-adv-x="556" 
d="M223 456v-58c34 38 78 72 132 72c101 0 125 -76 125 -182v-183c0 -45 0 -87 50 -87v-18h-232v18c45 0 45 42 45 87v186c0 67 0 113 -44 113c-31 0 -60 -33 -76 -60v-239c0 -45 0 -87 45 -87v-18h-232v18c50 0 50 42 50 87v244c0 53 0 89 -55 89v18h192z" />
    <glyph glyph-name="o" unicode="o" 
d="M250 -14c-137 0 -214 114 -214 242s77 242 214 242s214 -114 214 -242s-77 -242 -214 -242zM250 20c62 0 71 62 71 208s-9 208 -71 208s-71 -62 -71 -208s9 -208 71 -208z" />
    <glyph glyph-name="p" unicode="p" horiz-adv-x="556" 
d="M76 -109v458c0 53 0 89 -55 89v18h192v-56l2 2c26 41 71 68 126 68c111 0 174 -114 174 -241c0 -112 -49 -243 -181 -243c-50 0 -91 22 -119 55l-2 2v-156c0 -53 0 -82 68 -82v-18h-260v18c55 0 55 36 55 86zM213 339v-243c19 -30 52 -60 89 -60c69 0 70 135 70 181
c0 54 -1 194 -78 194c-40 0 -68 -38 -81 -72z" />
    <glyph glyph-name="q" unicode="q" horiz-adv-x="556" 
d="M386 417l78 53h16v-579c0 -50 0 -86 55 -86v-18h-260v18c68 0 68 29 68 82v161c-34 -38 -76 -62 -128 -62c-119 0 -174 119 -174 223c0 130 83 261 224 261c45 0 94 -16 121 -53zM343 92v183c0 75 0 161 -73 161c-84 0 -86 -158 -86 -217c0 -52 3 -178 77 -178
c30 0 65 27 82 51z" />
    <glyph glyph-name="r" unicode="r" horiz-adv-x="444" 
d="M223 456v-103h2c30 50 78 117 143 117c39 0 61 -26 61 -63c0 -33 -16 -70 -54 -70c-46 0 -55 38 -79 38c-22 0 -73 -27 -73 -175v-95c0 -55 0 -87 61 -87v-18h-253v18c55 0 55 32 55 87v244c0 53 0 89 -55 89v18h192z" />
    <glyph glyph-name="s" unicode="s" horiz-adv-x="389" 
d="M324 470l7 -157h-18c-23 57 -61 119 -123 119c-24 0 -49 -17 -49 -42c0 -70 214 -118 214 -248c0 -91 -65 -156 -148 -156c-24 0 -47 7 -66 13c-18 7 -33 13 -42 13c-14 0 -23 -13 -26 -26h-18l-8 166h18c15 -57 69 -128 133 -128c28 0 52 19 52 49
c0 85 -209 121 -209 257c0 84 64 140 143 140c24 0 43 -6 57 -12c15 -7 26 -13 34 -13c19 0 23 11 31 25h18z" />
    <glyph glyph-name="t" unicode="t" horiz-adv-x="333" 
d="M213 623v-167h109v-48h-109v-270c0 -48 0 -89 36 -89c25 0 47 28 58 49l15 -11c-22 -56 -68 -93 -130 -93c-73 0 -116 60 -116 106v308h-60v17c75 51 139 118 181 198h16z" />
    <glyph glyph-name="u" unicode="u" horiz-adv-x="556" 
d="M476 456v-351c0 -55 0 -87 54 -87v-18h-191v58l-2 -2c-31 -38 -77 -70 -134 -70c-79 0 -121 62 -121 146v217c0 53 0 89 -55 89v18h192v-321c0 -35 0 -83 42 -83c37 0 59 34 78 61v236c0 53 0 89 -55 89v18h192z" />
    <glyph glyph-name="v" unicode="v" 
d="M240 -14l-164 378c-26 59 -46 74 -67 74v18h243v-18c-27 0 -43 -10 -43 -34c0 -21 18 -58 27 -78l70 -161l55 137c11 27 31 73 31 102c0 27 -25 34 -50 34v18h149v-18c-16 0 -42 -13 -61 -59l-167 -393h-23z" />
    <glyph glyph-name="w" unicode="w" horiz-adv-x="722" 
d="M489 -14l-126 335l-121 -335h-27l-117 320c-43 117 -58 132 -88 132v18h230v-18c-16 0 -41 -1 -41 -22c0 -8 7 -26 10 -33l72 -195l65 178c-26 59 -31 72 -65 72v18h235v-18c-31 0 -42 -5 -42 -23c0 -10 4 -23 8 -33l69 -194h2l54 153c6 17 16 41 16 60
c0 31 -18 37 -45 37v18h135v-18c-23 0 -43 -11 -62 -66l-135 -386h-27z" />
    <glyph glyph-name="x" unicode="x" 
d="M301 280l84 -162c39 -74 67 -100 95 -100v-18h-254v18c28 0 44 6 44 23c0 16 -14 39 -21 53l-34 63c-29 -42 -63 -82 -63 -109c0 -24 21 -30 46 -30v-18h-178v18c62 0 91 39 148 124l30 45l-72 135c-30 56 -59 116 -106 117v17h253v-18c-36 0 -43 -3 -43 -21
c0 -16 15 -38 22 -52l30 -55c22 31 57 77 57 102c0 20 -22 26 -38 26v18h161v-18c-57 0 -93 -53 -120 -95z" />
    <glyph glyph-name="y" unicode="y" 
d="M237 324l73 -167l49 127c10 27 33 84 33 113c0 33 -26 41 -54 41v18h153v-18c-31 0 -41 -9 -68 -78l-190 -481c-21 -53 -59 -95 -114 -95c-46 0 -91 29 -91 79c0 35 23 66 60 66c40 0 55 -29 55 -64c0 -11 0 -29 14 -29c28 0 45 34 85 146l-141 328
c-26 61 -51 128 -93 128v18h243v-18c-21 0 -43 -6 -43 -30c0 -18 20 -64 29 -84z" />
    <glyph glyph-name="z" unicode="z" horiz-adv-x="444" 
d="M411 0h-398v11l250 415h-61c-92 0 -113 -8 -138 -102h-18v132h385v-13l-250 -413c122 0 193 3 229 126h16z" />
    <glyph glyph-name="braceleft" unicode="{" horiz-adv-x="394" 
d="M62 224v28c53 6 96 44 96 100c0 30 -7 58 -14 86c-6 28 -13 55 -13 84c0 68 63 155 202 155v-22c-51 -7 -95 -40 -95 -95c0 -29 6 -56 12 -83c6 -26 12 -52 12 -77c0 -89 -82 -144 -157 -161v-2c75 -17 157 -72 157 -161c0 -25 -6 -51 -12 -77c-6 -27 -12 -55 -12 -83
c0 -55 44 -88 95 -95v-22c-139 0 -202 87 -202 155c0 28 7 56 13 84c7 28 14 56 14 86c0 56 -43 94 -96 100z" />
    <glyph glyph-name="bar" unicode="|" horiz-adv-x="220" 
d="M78 -250v1000h64v-1000h-64z" />
    <glyph glyph-name="braceright" unicode="}" horiz-adv-x="394" 
d="M332 252v-28c-53 -6 -96 -44 -96 -100c0 -30 7 -58 14 -86c6 -28 13 -55 13 -84c0 -68 -63 -155 -202 -155v22c51 7 95 40 95 95c0 29 -6 56 -12 83c-6 26 -12 52 -12 77c0 89 82 144 157 161v2c-75 17 -157 72 -157 161c0 25 6 51 12 77c6 27 12 55 12 83
c0 55 -44 88 -95 95v22c139 0 202 -87 202 -155c0 -28 -7 -56 -13 -84c-7 -28 -14 -56 -14 -86c0 -56 43 -94 96 -100z" />
    <glyph glyph-name="asciitilde" unicode="~" horiz-adv-x="520" 
d="M470 416h31c0 -81 -46 -172 -133 -172c-41 0 -85 17 -126 35c-42 17 -81 34 -112 34c-44 0 -71 -26 -80 -69h-31c0 81 46 172 133 172c41 0 85 -17 126 -35c42 -17 81 -34 112 -34c44 0 71 26 80 69z" />
    <glyph glyph-name="exclamdown" unicode="&#xa1;" horiz-adv-x="333" 
d="M155 246h22c0 -85 71 -295 71 -379c0 -49 -34 -83 -82 -83s-82 34 -82 83c0 84 71 294 71 379zM166 475c44 0 79 -35 79 -79s-35 -79 -79 -79s-79 35 -79 79s35 79 79 79z" />
    <glyph glyph-name="cent" unicode="&#xa2;" 
d="M211 193l83 216c-6 15 -16 27 -34 27c-55 0 -65 -98 -65 -137c0 -31 4 -70 14 -108zM305 346l-77 -203c20 -44 55 -79 108 -79c40 0 70 26 95 54l15 -12c-33 -69 -102 -120 -181 -120c-34 0 -64 8 -89 22l-74 -192h-36l81 210c-55 43 -84 118 -84 202
c0 128 77 242 214 242c13 0 26 -1 39 -4l75 196h36l-79 -205c46 -16 85 -50 85 -103c0 -35 -26 -60 -61 -60c-40 0 -58 23 -65 54z" />
    <glyph glyph-name="sterling" unicode="&#xa3;" 
d="M163 80c-20 14 -34 23 -59 23c-24 0 -48 -13 -48 -39c0 -23 22 -38 43 -38c30 0 56 27 64 54zM261 382h107v-74h-100v-36c0 -49 -7 -98 -24 -145c34 -8 69 -12 104 -12c41 0 99 6 112 54h20c4 -94 -51 -183 -153 -183c-49 0 -86 27 -121 57c-23 -33 -58 -55 -98 -55
c-56 0 -91 40 -91 79c0 29 19 88 104 88c16 0 32 -3 48 -8c-1 54 -27 110 -42 161h-106v74h90c-5 25 -7 48 -7 83c0 102 72 212 185 212c66 0 150 -46 150 -121c0 -37 -23 -67 -62 -67c-55 0 -65 35 -65 68v41c0 27 -11 45 -39 45c-33 0 -41 -31 -41 -58
c0 -45 26 -160 29 -203z" />
    <glyph glyph-name="fraction" unicode="&#x2044;" horiz-adv-x="167" 
d="M346 677l-460 -692h-66l460 692h66z" />
    <glyph glyph-name="yen" unicode="&#xa5;" 
d="M402 470l-35 -96h133v-38h-144l-34 -92v-119c0 -85 0 -107 105 -107v-18h-353v18c105 0 105 22 105 107v120l-33 91h-146v38h133l-35 96h-98v38h85l-25 67c-14 37 -30 69 -60 69v18h240v-18c-16 0 -48 -4 -48 -28c0 -12 17 -60 37 -108h145c14 37 29 76 29 104
c0 26 -25 32 -47 32v18h144v-18c-50 -14 -66 -77 -80 -118l-6 -18h86v-38h-98zM363 470h-120l59 -165h2z" />
    <glyph glyph-name="florin" unicode="&#x192;" 
d="M209 382h-69l12 60c78 0 96 40 123 110c26 68 64 125 145 125c39 0 80 -18 80 -62c0 -32 -21 -57 -53 -57c-21 0 -42 18 -42 40c0 17 15 38 15 45s-7 10 -14 10c-33 0 -45 -40 -45 -66c0 -28 4 -56 4 -84c0 -21 -3 -41 -6 -61h75l-12 -60h-75l-61 -299
c-48 -239 -126 -299 -212 -299c-32 0 -74 19 -74 56c0 27 22 49 49 49c24 0 46 -12 46 -38c0 -11 -6 -20 -6 -26c0 -7 8 -11 15 -11c28 0 36 39 36 61c0 31 -4 62 -4 93c0 61 10 105 22 165z" />
    <glyph glyph-name="section" unicode="&#xa7;" 
d="M149 394c-40 34 -73 71 -73 132c0 93 89 151 175 151c71 0 168 -37 168 -120c0 -32 -24 -57 -56 -57c-29 0 -56 19 -56 51c0 16 7 31 7 47c0 32 -31 45 -60 45c-43 0 -88 -28 -88 -75c0 -116 289 -162 289 -350c0 -68 -46 -110 -105 -150c42 -40 74 -77 74 -139
c0 -99 -91 -145 -180 -145c-84 0 -160 46 -160 118c0 33 26 59 59 59c27 0 53 -22 53 -50c0 -19 -11 -38 -11 -54c0 -31 36 -39 61 -39c45 0 88 23 88 76c0 118 -289 162 -289 342c0 63 50 115 104 158zM325 88c26 20 46 51 46 85c0 52 -41 87 -196 199
c-26 -20 -46 -51 -46 -85c0 -52 41 -87 196 -199z" />
    <glyph glyph-name="currency" unicode="&#xa4;" 
d="M96 329c0 -85 69 -154 154 -154s154 69 154 154s-69 154 -154 154s-154 -69 -154 -154zM55 92l-45 45l65 65c-27 35 -42 79 -42 127c0 47 15 90 42 127l-65 65l45 45l64 -64c36 27 81 44 131 44c49 0 94 -16 131 -44l64 64l45 -45l-65 -65c27 -36 42 -80 42 -127
c0 -48 -15 -92 -42 -127l65 -65l-45 -45l-64 65c-37 -29 -82 -45 -131 -45s-94 16 -130 45z" />
    <glyph glyph-name="quotesingle" unicode="'" horiz-adv-x="278" 
d="M150 352h-22c-52 193 -61 231 -61 253c0 41 32 72 72 72s72 -31 72 -72c0 -22 -9 -60 -61 -253z" />
    <glyph glyph-name="quotedblleft" unicode="&#x201c;" 
d="M441 677v-21c-58 -22 -108 -78 -108 -142c0 -7 2 -18 11 -18c8 0 22 12 42 12c41 0 73 -35 73 -75c0 -46 -41 -81 -86 -81c-64 0 -99 62 -99 120c0 104 69 179 167 205zM208 677v-21c-58 -22 -108 -78 -108 -142c0 -7 2 -18 11 -18c8 0 22 12 42 12c41 0 73 -35 73 -75
c0 -46 -41 -81 -86 -81c-64 0 -99 62 -99 120c0 104 69 179 167 205z" />
    <glyph glyph-name="guillemotleft" unicode="&#xab;" 
d="M239 228l208 228h36l-117 -228l117 -228h-36zM17 228l208 228h36l-117 -228l117 -228h-36z" />
    <glyph glyph-name="guilsinglleft" unicode="&#x2039;" horiz-adv-x="333" 
d="M45 228l208 228h36l-117 -228l117 -228h-36z" />
    <glyph glyph-name="guilsinglright" unicode="&#x203a;" horiz-adv-x="333" 
d="M288 228l-208 -228h-36l117 228l-117 228h36z" />
    <glyph glyph-name="fi" unicode="&#xfb01;" horiz-adv-x="556" 
d="M223 456h263v-351c0 -55 0 -87 54 -87v-18h-241v18c50 0 50 32 50 87v303h-126v-303c0 -55 0 -87 49 -87v-18h-241v18c55 0 55 32 55 87v303h-54v48h54c0 164 105 221 230 221c95 0 150 -39 150 -89c0 -41 -35 -61 -72 -61c-33 0 -58 17 -58 45c0 26 20 34 20 49
c0 23 -32 25 -50 25c-83 0 -83 -64 -83 -88v-102z" />
    <glyph glyph-name="fl" unicode="&#xfb02;" horiz-adv-x="556" 
d="M376 662h110v-557c0 -55 0 -87 54 -87v-18h-241v18c50 0 50 32 50 87v303h-126v-303c0 -55 0 -87 49 -87v-18h-241v18c55 0 55 32 55 87v303h-54v48h54c0 206 149 221 205 221c28 0 59 -7 85 -15zM223 456h126v90c-10 8 -15 14 -15 26c0 20 18 34 18 49
c0 23 -28 25 -46 25c-83 0 -83 -64 -83 -88v-102z" />
    <glyph glyph-name="endash" unicode="&#x2013;" 
d="M508 201h-516v60h516v-60z" />
    <glyph glyph-name="dagger" unicode="&#x2020;" 
d="M263 -196h-26c0 321 -25 417 -52 487c34 27 50 71 52 113c-45 -1 -93 -46 -132 -46c-30 0 -56 24 -56 57s26 57 56 57c39 0 87 -45 132 -46c0 64 -49 111 -49 168c0 35 24 68 62 68s62 -33 62 -68c0 -57 -49 -104 -49 -168c45 1 93 46 132 46c30 0 56 -24 56 -57
s-26 -57 -56 -57c-39 0 -87 45 -132 46c2 -42 18 -86 52 -113c-27 -70 -52 -166 -52 -487z" />
    <glyph glyph-name="daggerdbl" unicode="&#x2021;" 
d="M262 232c0 -48 4 -94 51 -130c-28 -19 -49 -49 -52 -83c46 0 87 40 134 40c25 0 51 -23 51 -50s-26 -50 -51 -50c-47 0 -88 40 -134 40c4 -43 44 -97 44 -137c0 -32 -22 -60 -55 -60s-55 28 -55 60c0 40 40 94 44 137c-46 0 -87 -40 -134 -40c-25 0 -51 23 -51 50
s26 50 51 50c47 0 88 -40 134 -40c-3 34 -24 64 -52 83c47 36 51 82 51 130s-4 94 -51 130c28 19 49 49 52 83c-46 0 -87 -40 -134 -40c-25 0 -51 23 -51 50s26 50 51 50c47 0 88 -40 134 -40c-4 43 -44 97 -44 137c0 32 22 60 55 60s55 -28 55 -60c0 -40 -40 -94 -44 -137
c46 0 87 40 134 40c25 0 51 -23 51 -50s-26 -50 -51 -50c-47 0 -88 40 -134 40c3 -34 24 -64 52 -83c-47 -36 -51 -82 -51 -130z" />
    <glyph glyph-name="periodcentered" unicode="&#xb7;" horiz-adv-x="250" 
d="M125 249c-45 0 -81 36 -81 81s36 81 81 81s81 -36 81 -81s-36 -81 -81 -81z" />
    <glyph glyph-name="paragraph" unicode="&#xb6;" horiz-adv-x="540" 
d="M311 624v-837h-49v423c-146 0 -262 71 -262 230c0 186 142 222 256 222h284v-22c-92 0 -92 -25 -92 -111v-742h-49v837h-88z" />
    <glyph glyph-name="bullet" unicode="&#x2022;" horiz-adv-x="350" 
d="M35 330c0 77 63 140 140 140s140 -63 140 -140s-63 -140 -140 -140s-140 63 -140 140z" />
    <glyph glyph-name="quotesinglbase" unicode="&#x201a;" horiz-adv-x="333" 
d="M92 -177v21c58 22 108 78 108 142c0 7 -2 18 -11 18c-8 0 -22 -12 -42 -12c-41 0 -73 35 -73 75c0 46 41 81 86 81c64 0 99 -62 99 -120c0 -104 -69 -179 -167 -205z" />
    <glyph glyph-name="quotedblbase" unicode="&#x201e;" 
d="M59 -177v21c58 22 108 78 108 142c0 7 -2 18 -11 18c-8 0 -22 -12 -42 -12c-41 0 -73 35 -73 75c0 46 41 81 86 81c64 0 99 -62 99 -120c0 -104 -69 -179 -167 -205zM292 -177v21c58 22 108 78 108 142c0 7 -2 18 -11 18c-8 0 -22 -12 -42 -12c-41 0 -73 35 -73 75
c0 46 41 81 86 81c64 0 99 -62 99 -120c0 -104 -69 -179 -167 -205z" />
    <glyph glyph-name="quotedblright" unicode="&#x201d;" 
d="M59 352v21c58 22 108 78 108 142c0 7 -2 18 -11 18c-8 0 -22 -12 -42 -12c-41 0 -73 35 -73 75c0 46 41 81 86 81c64 0 99 -62 99 -120c0 -104 -69 -179 -167 -205zM292 352v21c58 22 108 78 108 142c0 7 -2 18 -11 18c-8 0 -22 -12 -42 -12c-41 0 -73 35 -73 75
c0 46 41 81 86 81c64 0 99 -62 99 -120c0 -104 -69 -179 -167 -205z" />
    <glyph glyph-name="guillemotright" unicode="&#xbb;" 
d="M261 228l-208 -228h-36l117 228l-117 228h36zM483 228l-208 -228h-36l117 228l-117 228h36z" />
    <glyph glyph-name="ellipsis" unicode="&#x2026;" horiz-adv-x="1000" 
d="M167 -14c-45 0 -81 36 -81 81s36 81 81 81s81 -36 81 -81s-36 -81 -81 -81zM500 -14c-45 0 -81 36 -81 81s36 81 81 81s81 -36 81 -81s-36 -81 -81 -81zM833 -14c-45 0 -81 36 -81 81s36 81 81 81s81 -36 81 -81s-36 -81 -81 -81z" />
    <glyph glyph-name="perthousand" unicode="&#x2030;" horiz-adv-x="1000" 
d="M493 -14c-100 0 -149 90 -149 178s49 178 149 178s149 -90 149 -178s-49 -178 -149 -178zM493 10c35 0 35 85 35 154s0 154 -35 154s-35 -85 -35 -154s0 -154 35 -154zM827 -14c-100 0 -149 90 -149 178s49 178 149 178s149 -90 149 -178s-49 -178 -149 -178zM827 10
c35 0 35 85 35 154s0 154 -35 154s-35 -85 -35 -154s0 -154 35 -154zM173 320c-100 0 -149 90 -149 178s49 178 149 178s149 -90 149 -178s-49 -178 -149 -178zM173 344c35 0 35 85 35 154s0 154 -35 154s-35 -85 -35 -154s0 -154 35 -154zM596 677l-460 -692h-66l460 692
h66z" />
    <glyph glyph-name="questiondown" unicode="&#xbf;" 
d="M263 245h20v-19c0 -133 -79 -147 -79 -281c0 -57 19 -127 88 -127c19 0 56 13 56 36c0 21 -31 43 -31 87c0 33 25 58 57 58c41 0 65 -33 65 -71c0 -100 -103 -144 -188 -144c-159 0 -195 95 -195 163c0 74 62 123 124 164c58 39 79 61 83 134zM269 475
c44 0 79 -35 79 -79s-35 -79 -79 -79s-79 35 -79 79s35 79 79 79z" />
    <glyph glyph-name="grave" unicode="`" horiz-adv-x="333" 
d="M18 684h147l57 -169h-42z" />
    <glyph glyph-name="acute" unicode="&#xb4;" horiz-adv-x="333" 
d="M315 684l-162 -169h-42l57 169h147z" />
    <glyph glyph-name="circumflex" unicode="&#x2c6;" horiz-adv-x="333" 
d="M222 697l102 -186h-38l-119 100l-119 -100h-38l102 186h110z" />
    <glyph glyph-name="tilde" unicode="&#x2dc;" horiz-adv-x="333" 
d="M296 668h28c0 -82 -38 -136 -105 -136c-48 0 -100 46 -142 46c-24 0 -34 -25 -40 -45h-28c0 82 38 136 105 136c48 0 100 -46 142 -46c24 0 34 25 40 45z" />
    <glyph glyph-name="macron" unicode="&#xaf;" horiz-adv-x="333" 
d="M10 653h313v-101h-313v101z" />
    <glyph glyph-name="breve" unicode="&#x2d8;" horiz-adv-x="333" 
d="M283 677h32c-1 -82 -67 -156 -148 -156s-147 74 -148 156h32c15 -48 65 -62 116 -62s101 14 116 62z" />
    <glyph glyph-name="dotaccent" unicode="&#x2d9;" horiz-adv-x="333" 
d="M95 598c0 40 32 72 72 72s72 -32 72 -72s-32 -72 -72 -72s-72 32 -72 72z" />
    <glyph glyph-name="dieresis" unicode="&#xa8;" horiz-adv-x="333" 
d="M10 603c0 36 29 65 65 65s65 -29 65 -65s-29 -65 -65 -65s-65 29 -65 65zM193 603c0 36 29 65 65 65s65 -29 65 -65s-29 -65 -65 -65s-65 29 -65 65z" />
    <glyph glyph-name="ring" unicode="&#x2da;" horiz-adv-x="333" 
d="M64 599c0 57 46 103 103 103s103 -46 103 -103s-46 -103 -103 -103s-103 46 -103 103zM102 599c0 -36 29 -65 65 -65s65 29 65 65s-29 65 -65 65s-65 -29 -65 -65z" />
    <glyph glyph-name="cedilla" unicode="&#xb8;" horiz-adv-x="333" 
d="M171 6h44l-31 -39c43 -3 80 -33 80 -79c0 -97 -134 -97 -221 -97v26c61 0 111 13 111 59c0 30 -34 39 -59 39z" />
    <glyph glyph-name="hungarumlaut" unicode="&#x2dd;" horiz-adv-x="333" 
d="M214 684l-119 -169h-39l56 169h102zM369 684l-119 -169h-39l56 169h102z" />
    <glyph glyph-name="ogonek" unicode="&#x2db;" horiz-adv-x="333" 
d="M139 8h43c-24 -18 -46 -41 -46 -74c0 -65 72 -114 133 -109l14 -16c-26 -22 -61 -34 -95 -34c-66 0 -138 47 -138 118c0 55 43 95 89 115z" />
    <glyph glyph-name="caron" unicode="&#x2c7;" horiz-adv-x="333" 
d="M112 511l-102 186h38l119 -100l119 100h38l-102 -186h-110z" />
    <glyph glyph-name="emdash" unicode="&#x2014;" horiz-adv-x="1000" 
d="M1008 201h-1016v60h1016v-60z" />
    <glyph glyph-name="AE" unicode="&#xc6;" horiz-adv-x="1000" 
d="M908 662v-196h-18c-29 148 -97 158 -213 158h-55v-270c103 0 118 56 135 157h18v-350h-18c-17 101 -32 157 -135 157v-178c0 -84 0 -102 69 -102c87 0 196 0 246 172h18l-30 -210h-581v18c119 0 119 17 119 107v160h-214l-87 -139c-13 -20 -38 -54 -38 -79
c0 -42 47 -49 79 -49v-18h-214v18c54 4 86 60 112 102l255 406c12 18 40 59 40 81c0 37 -51 37 -89 37v18h601zM463 321v295h-3l-189 -295h192z" />
    <glyph glyph-name="ordfeminine" unicode="&#xaa;" horiz-adv-x="300" 
d="M257 574v-109c0 -22 0 -41 12 -41c7 0 13 7 18 10l13 -11c-20 -25 -46 -39 -78 -39c-33 0 -53 19 -61 50c-26 -25 -61 -50 -99 -50c-33 0 -56 24 -56 57c0 65 95 96 155 116v7c0 56 0 86 -38 86c-11 0 -41 -5 -41 -20c0 -12 18 -20 18 -42c0 -23 -18 -35 -40 -35
c-25 0 -47 15 -47 42c0 62 77 82 126 82c40 0 118 -17 118 -103zM161 461v70c-30 -9 -62 -29 -62 -63c0 -14 6 -30 22 -30c14 0 30 15 40 23z" />
    <glyph glyph-name="Lslash" unicode="&#x141;" horiz-adv-x="667" 
d="M633 232l-25 -232h-588v18c94 0 94 26 94 107v116l-94 -75v46l94 75v250c0 81 0 107 -94 107v18h354v-18c-101 0 -101 -26 -101 -107v-124l112 89v-46l-112 -89v-228c0 -101 7 -101 112 -101c131 0 171 22 228 194h20z" />
    <glyph glyph-name="Oslash" unicode="&#xd8;" horiz-adv-x="778" 
d="M548 486l-305 -351c24 -63 68 -112 146 -112c154 0 176 191 176 308c0 46 -3 103 -17 155zM230 176l305 352c-25 63 -69 111 -146 111c-154 0 -176 -191 -176 -308c0 -46 3 -103 17 -155zM96 -35l-28 24l75 87c-66 61 -106 149 -106 255c0 205 150 346 352 346
c84 0 159 -24 217 -67l76 87l28 -24l-75 -87c66 -60 106 -149 106 -255c0 -205 -150 -346 -352 -346c-83 0 -157 24 -217 68z" />
    <glyph glyph-name="OE" unicode="&#x152;" horiz-adv-x="1000" 
d="M628 318v-178c0 -84 0 -102 69 -102c72 0 190 0 240 172h18l-30 -210h-325c-62 0 -106 -2 -141 -4s-60 -4 -87 -4c-212 0 -334 164 -334 336c0 192 137 342 316 342c36 0 66 -2 103 -4s81 -4 143 -4h307v-196h-18c-29 148 -97 158 -228 158h-33v-270
c103 0 113 66 129 157h18v-350h-18c-16 91 -26 157 -129 157zM469 159v385c0 38 -13 88 -89 88c-132 0 -166 -146 -166 -323c0 -108 23 -279 164 -279c91 0 91 56 91 129z" />
    <glyph glyph-name="ordmasculine" unicode="&#xba;" horiz-adv-x="330" 
d="M316 531c0 -88 -63 -147 -151 -147s-151 59 -151 147c0 87 63 146 151 146s151 -59 151 -146zM165 653c-42 0 -42 -78 -42 -122c0 -45 0 -123 42 -123s42 78 42 123c0 44 0 122 -42 122z" />
    <glyph glyph-name="ae" unicode="&#xe6;" horiz-adv-x="722" 
d="M696 243h-265c11 -101 43 -182 146 -182c49 0 79 37 103 75l16 -11c-40 -81 -90 -139 -187 -139c-79 0 -133 28 -167 79c-51 -40 -123 -79 -189 -79c-52 0 -107 29 -107 87c0 73 54 125 254 213v64c0 68 -55 82 -76 82s-64 -8 -64 -35c0 -19 32 -31 32 -63
c0 -38 -30 -59 -66 -59c-35 0 -71 25 -71 63c0 92 127 132 202 132c44 0 99 -14 132 -56c34 39 73 56 139 56c110 0 170 -120 168 -227zM430 277h146c0 69 -8 159 -70 159c-60 0 -78 -114 -76 -159zM300 256c-47 -34 -122 -69 -122 -136c0 -34 32 -59 65 -59
c26 0 63 17 86 30c-26 51 -29 109 -29 165z" />
    <glyph glyph-name="dotlessi" unicode="&#x131;" horiz-adv-x="278" 
d="M211 456v-351c0 -55 0 -87 54 -87v-18h-246v18c55 0 55 32 55 87v244c0 53 0 89 -55 89v18h192z" />
    <glyph glyph-name="lslash" unicode="&#x142;" horiz-adv-x="278" 
d="M211 662v-252l57 46v-41l-57 -46v-264c0 -55 0 -87 54 -87v-18h-246v18c55 0 55 32 55 87v154l-57 -46v41l57 46v255c0 53 0 89 -55 89v18h192z" />
    <glyph glyph-name="oslash" unicode="&#xf8;" 
d="M319 282l-136 -155c6 -75 23 -107 67 -107c62 0 71 62 71 208v54h-2zM181 175l136 155c-6 75 -23 106 -67 106c-62 0 -71 -62 -71 -208v-53h2zM467 455l-55 -63c34 -44 52 -102 52 -164c0 -128 -77 -242 -214 -242c-60 0 -108 22 -141 55l-53 -61l-23 22l55 63
c-35 45 -52 102 -52 163c0 128 77 242 214 242c58 0 105 -20 141 -54l53 61z" />
    <glyph glyph-name="oe" unicode="&#x153;" horiz-adv-x="722" 
d="M696 243h-240c2 -70 37 -182 121 -182c49 0 79 37 103 75l16 -11c-40 -81 -90 -139 -187 -139c-50 0 -83 19 -119 60c-42 -42 -76 -60 -140 -60c-137 0 -214 114 -214 242s77 242 214 242c64 0 109 -22 146 -68c30 40 74 68 132 68c110 0 170 -120 168 -227zM454 277h122
v35c0 36 -1 124 -55 124c-61 0 -67 -101 -67 -159zM250 20c62 0 77 62 77 208s-15 208 -77 208s-71 -62 -71 -208s9 -208 71 -208z" />
    <glyph glyph-name="germandbls" unicode="&#xdf;" horiz-adv-x="556" 
d="M213 0h-184v18c47 0 47 42 47 93v389c0 90 57 177 205 177c97 0 199 -34 199 -148c0 -75 -47 -113 -117 -120v-2c104 -12 143 -105 143 -200c0 -100 -41 -213 -158 -213c-47 0 -96 26 -96 78c0 29 20 48 48 48c34 0 46 -25 46 -47c0 -12 -3 -18 -3 -28
c0 -12 17 -17 23 -17c16 0 27 18 27 31c0 37 -30 73 -30 130v103c0 36 0 95 -80 95v29c60 -1 60 43 60 90c0 80 -2 137 -64 137c-58 0 -66 -43 -66 -95v-548z" />
    <glyph glyph-name="onesuperior" unicode="&#xb9;" horiz-adv-x="300" 
d="M201 676v-276c0 -55 0 -60 57 -60v-16h-217v16c64 0 64 5 64 60v165c0 30 0 46 -22 46c-14 0 -24 -4 -39 -9l-9 15l149 59h17z" />
    <glyph glyph-name="minus" unicode="&#x2212;" horiz-adv-x="570" 
d="M18 363h534v-64h-534v64z" />
    <glyph glyph-name="degree" unicode="&#xb0;" horiz-adv-x="400" 
d="M31 507c0 93 76 169 169 169s169 -76 169 -169s-76 -169 -169 -169s-169 76 -169 169zM95 507c0 -58 47 -105 105 -105s105 47 105 105s-47 105 -105 105s-105 -47 -105 -105z" />
    <glyph glyph-name="oacute" unicode="&#xf3;" 
d="M250 -14c-137 0 -214 114 -214 242s77 242 214 242s214 -114 214 -242s-77 -242 -214 -242zM250 20c62 0 71 62 71 208s-9 208 -71 208s-71 -62 -71 -208s9 -208 71 -208zM399 684l-162 -169h-42l57 169h147z" />
    <glyph glyph-name="Odieresis" unicode="&#xd6;" horiz-adv-x="778" 
d="M389 -15c-202 0 -352 141 -352 346s150 346 352 346s352 -141 352 -346s-150 -346 -352 -346zM389 23c154 0 176 191 176 308s-22 308 -176 308s-176 -191 -176 -308s22 -308 176 -308zM233 793c0 36 29 65 65 65s65 -29 65 -65s-29 -65 -65 -65s-65 29 -65 65zM416 793
c0 36 29 65 65 65s65 -29 65 -65s-29 -65 -65 -65s-65 29 -65 65z" />
    <glyph glyph-name="odieresis" unicode="&#xf6;" 
d="M250 -14c-137 0 -214 114 -214 242s77 242 214 242s214 -114 214 -242s-77 -242 -214 -242zM250 20c62 0 71 62 71 208s-9 208 -71 208s-71 -62 -71 -208s9 -208 71 -208zM94 603c0 36 29 65 65 65s65 -29 65 -65s-29 -65 -65 -65s-65 29 -65 65zM277 603
c0 36 29 65 65 65s65 -29 65 -65s-29 -65 -65 -65s-65 29 -65 65z" />
    <glyph glyph-name="Ecircumflex" unicode="&#xca;" horiz-adv-x="667" 
d="M273 624v-270c115 0 125 66 141 157h18v-350h-18c-16 91 -26 157 -141 157v-178c0 -84 0 -102 69 -102c94 0 212 0 262 172h18l-30 -210h-572v18c94 0 94 26 94 107v412c0 81 0 107 -94 107v18h554v-196h-18c-29 148 -97 158 -228 158h-55zM389 888l102 -186h-38
l-119 100l-119 -100h-38l102 186h110z" />
    <glyph glyph-name="ucircumflex" unicode="&#xfb;" horiz-adv-x="556" 
d="M476 456v-351c0 -55 0 -87 54 -87v-18h-191v58l-2 -2c-31 -38 -77 -70 -134 -70c-79 0 -121 62 -121 146v217c0 53 0 89 -55 89v18h192v-321c0 -35 0 -83 42 -83c37 0 59 34 78 61v236c0 53 0 89 -55 89v18h192zM334 697l102 -186h-38l-119 100l-119 -100h-38l102 186
h110z" />
    <glyph glyph-name="onequarter" unicode="&#xbc;" horiz-adv-x="750" 
d="M462 117l188 221h45v-220h35v-57h-35v-76h-88v76h-145v56zM654 677l-460 -692h-66l460 692h66zM505 118h102v119zM201 676v-276c0 -55 0 -60 57 -60v-16h-217v16c64 0 64 5 64 60v165c0 30 0 46 -22 46c-14 0 -24 -4 -39 -9l-9 15l149 59h17z" />
    <glyph glyph-name="logicalnot" unicode="&#xac;" horiz-adv-x="570" 
d="M18 443h534v-222h-64v158h-470v64z" />
    <glyph glyph-name="Edieresis" unicode="&#xcb;" horiz-adv-x="667" 
d="M273 624v-270c115 0 125 66 141 157h18v-350h-18c-16 91 -26 157 -141 157v-178c0 -84 0 -102 69 -102c94 0 212 0 262 172h18l-30 -210h-572v18c94 0 94 26 94 107v412c0 81 0 107 -94 107v18h554v-196h-18c-29 148 -97 158 -228 158h-55zM177 793c0 36 29 65 65 65
s65 -29 65 -65s-29 -65 -65 -65s-65 29 -65 65zM360 793c0 36 29 65 65 65s65 -29 65 -65s-29 -65 -65 -65s-65 29 -65 65z" />
    <glyph glyph-name="onehalf" unicode="&#xbd;" horiz-adv-x="750" 
d="M705 -15h-241v9c129 142 150 162 150 217c0 36 -24 61 -58 61c-25 0 -48 -12 -66 -40l-20 6c21 63 63 99 128 99c51 0 112 -33 112 -91c0 -68 -93 -146 -143 -187l-2 -2h62c51 0 66 0 80 32h21zM201 676v-276c0 -55 0 -60 57 -60v-16h-217v16c64 0 64 5 64 60v165
c0 30 0 46 -22 46c-14 0 -24 -4 -39 -9l-9 15l149 59h17zM642 677l-460 -692h-66l460 692h66z" />
    <glyph glyph-name="Otilde" unicode="&#xd5;" horiz-adv-x="778" 
d="M389 -15c-202 0 -352 141 -352 346s150 346 352 346s352 -141 352 -346s-150 -346 -352 -346zM389 23c154 0 176 191 176 308s-22 308 -176 308s-176 -191 -176 -308s22 -308 176 -308zM519 856h28c0 -82 -38 -136 -105 -136c-48 0 -100 46 -142 46
c-24 0 -34 -25 -40 -45h-28c0 82 38 136 105 136c48 0 100 -46 142 -46c24 0 34 25 40 45z" />
    <glyph glyph-name="uacute" unicode="&#xfa;" horiz-adv-x="556" 
d="M476 456v-351c0 -55 0 -87 54 -87v-18h-191v58l-2 -2c-31 -38 -77 -70 -134 -70c-79 0 -121 62 -121 146v217c0 53 0 89 -55 89v18h192v-321c0 -35 0 -83 42 -83c37 0 59 34 78 61v236c0 53 0 89 -55 89v18h192zM427 684l-162 -169h-42l57 169h147z" />
    <glyph glyph-name="eacute" unicode="&#xe9;" horiz-adv-x="444" 
d="M418 243h-250c0 -73 40 -182 131 -182c49 0 79 37 103 75l16 -11c-40 -81 -90 -139 -187 -139c-137 0 -195 115 -195 242c0 128 77 242 214 242c110 0 170 -120 168 -227zM165 277h133c0 51 0 159 -62 159c-58 0 -71 -86 -71 -159zM371 684l-162 -169h-42l57 169h147z
" />
    <glyph glyph-name="iacute" unicode="&#xed;" horiz-adv-x="278" 
d="M211 456v-351c0 -55 0 -87 54 -87v-18h-246v18c55 0 55 32 55 87v244c0 53 0 89 -55 89v18h192zM288 684l-162 -169h-42l57 169h147z" />
    <glyph glyph-name="Eth" unicode="&#xd0;" horiz-adv-x="722" 
d="M114 125v204h-94v38h94v170c0 81 0 107 -94 107v18h312c296 0 355 -210 355 -331c0 -159 -85 -331 -365 -331h-302v18c94 0 94 26 94 107zM273 624v-257h147v-38h-147v-245c0 -37 18 -46 53 -46c159 0 185 162 185 288c0 232 -99 298 -197 298h-41z" />
    <glyph glyph-name="icircumflex" unicode="&#xee;" horiz-adv-x="278" 
d="M211 456v-351c0 -55 0 -87 54 -87v-18h-246v18c55 0 55 32 55 87v244c0 53 0 89 -55 89v18h192zM195 697l102 -186h-38l-119 100l-119 -100h-38l102 186h110z" />
    <glyph glyph-name="registered" unicode="&#xae;" horiz-adv-x="747" 
d="M242 234v206c0 42 0 76 -44 76v18h202c84 0 149 -34 149 -106c0 -53 -38 -90 -88 -102l61 -111c12 -21 30 -58 57 -58v-18h-118l-100 180h-22v-85c0 -52 0 -77 58 -77v-18h-206v18c51 0 51 25 51 77zM339 512v-168c6 -2 18 -3 27 -3c50 0 78 43 78 89c0 36 -12 82 -82 82
h-23zM720 331c0 -191 -155 -346 -346 -346s-347 155 -347 346s156 346 347 346s346 -155 346 -346zM676 331c0 167 -135 303 -302 303s-303 -136 -303 -303s136 -303 303 -303s302 136 302 303z" />
    <glyph glyph-name="brokenbar" unicode="&#xa6;" horiz-adv-x="220" 
d="M78 -175v350h64v-350h-64zM78 325v350h64v-350h-64z" />
    <glyph glyph-name="thorn" unicode="&#xfe;" horiz-adv-x="556" 
d="M76 -109v664c0 53 0 89 -55 89v18h192v-262l2 2c26 41 71 68 126 68c111 0 174 -114 174 -241c0 -112 -49 -243 -181 -243c-50 0 -91 22 -119 55l-2 2v-156c0 -53 0 -82 68 -82v-18h-260v18c55 0 55 36 55 86zM213 339v-243c19 -30 52 -60 89 -60c69 0 70 135 70 181
c0 54 -1 194 -78 194c-40 0 -68 -38 -81 -72z" />
    <glyph glyph-name="Atilde" unicode="&#xc3;" horiz-adv-x="722" 
d="M416 189h-232l-23 -53c-10 -24 -19 -44 -19 -63c0 -48 38 -52 88 -55v-18h-221v18c68 5 97 87 121 140l231 518h10l243 -553c19 -43 43 -105 99 -105v-18h-321v18c28 0 78 0 78 32c0 17 -4 24 -10 39zM401 225l-99 227l-101 -227h200zM491 856h28
c0 -82 -38 -136 -105 -136c-48 0 -100 46 -142 46c-24 0 -34 -25 -40 -45h-28c0 82 38 136 105 136c48 0 100 -46 142 -46c24 0 34 25 40 45z" />
    <glyph glyph-name="yacute" unicode="&#xfd;" 
d="M237 324l73 -167l49 127c10 27 33 84 33 113c0 33 -26 41 -54 41v18h153v-18c-31 0 -41 -9 -68 -78l-190 -481c-21 -53 -59 -95 -114 -95c-46 0 -91 29 -91 79c0 35 23 66 60 66c40 0 55 -29 55 -64c0 -11 0 -29 14 -29c28 0 45 34 85 146l-141 328
c-26 61 -51 128 -93 128v18h243v-18c-21 0 -43 -6 -43 -30c0 -18 20 -64 29 -84zM429 684l-162 -169h-42l57 169h147z" />
    <glyph glyph-name="Aacute" unicode="&#xc1;" horiz-adv-x="722" 
d="M416 189h-232l-23 -53c-10 -24 -19 -44 -19 -63c0 -48 38 -52 88 -55v-18h-221v18c68 5 97 87 121 140l231 518h10l243 -553c19 -43 43 -105 99 -105v-18h-321v18c28 0 78 0 78 32c0 17 -4 24 -10 39zM401 225l-99 227l-101 -227h200zM510 885l-162 -169h-42l57 169h147z
" />
    <glyph glyph-name="Ccedilla" unicode="&#xc7;" horiz-adv-x="722" 
d="M410 -15l-10 -15c38 -6 60 -32 60 -71c0 -85 -98 -87 -160 -87h-6v23c37 1 83 7 83 54c0 25 -22 34 -44 34l44 63c-190 10 -337 132 -337 333c0 199 164 358 362 358c51 0 100 -12 147 -30c13 -5 44 -18 57 -18c28 0 39 25 42 48h19v-229h-19c-25 104 -99 185 -212 185
c-162 0 -221 -156 -221 -293c0 -146 40 -309 217 -309c99 0 163 50 224 121v-57c-69 -73 -151 -110 -246 -110z" />
    <glyph glyph-name="ntilde" unicode="&#xf1;" horiz-adv-x="556" 
d="M223 456v-58c34 38 78 72 132 72c101 0 125 -76 125 -182v-183c0 -45 0 -87 50 -87v-18h-232v18c45 0 45 42 45 87v186c0 67 0 113 -44 113c-31 0 -60 -33 -76 -60v-239c0 -45 0 -87 45 -87v-18h-232v18c50 0 50 42 50 87v244c0 53 0 89 -55 89v18h192zM408 668h28
c0 -82 -38 -136 -105 -136c-48 0 -100 46 -142 46c-24 0 -34 -25 -40 -45h-28c0 82 38 136 105 136c48 0 100 -46 142 -46c24 0 34 25 40 45z" />
    <glyph glyph-name="eth" unicode="&#xf0;" 
d="M232 557l-122 -69l-22 31l118 66c-24 28 -55 53 -90 77l16 15c45 -15 85 -37 124 -64l117 64l20 -31l-103 -56c105 -81 175 -200 174 -330c0 -160 -74 -274 -214 -274c-137 0 -214 114 -214 242c0 111 58 228 188 228c26 0 46 -5 71 -14c-14 42 -37 81 -63 115zM250 20
c62 0 71 62 71 208c0 131 -9 194 -71 194s-71 -63 -71 -194c0 -146 9 -208 71 -208z" />
    <glyph glyph-name="Aring" unicode="&#xc5;" horiz-adv-x="722" 
d="M416 189h-232l-23 -53c-10 -24 -19 -44 -19 -63c0 -48 38 -52 88 -55v-18h-221v18c68 5 97 87 121 140l231 518h10l243 -553c19 -43 43 -105 99 -105v-18h-321v18c28 0 78 0 78 32c0 17 -4 24 -10 39zM401 225l-99 227l-101 -227h200zM265 741c0 57 46 103 103 103
s103 -46 103 -103s-46 -103 -103 -103s-103 46 -103 103zM303 741c0 -36 29 -65 65 -65s65 29 65 65s-29 65 -65 65s-65 -29 -65 -65z" />
    <glyph glyph-name="mu" unicode="&#xb5;" horiz-adv-x="556" 
d="M64 456h137v-321c0 -35 0 -83 42 -83c37 0 59 34 78 61v343h137v-313c0 -43 0 -83 33 -83c28 0 36 49 37 70h21c0 -80 -47 -144 -125 -144c-49 0 -87 29 -98 77c-35 -41 -84 -77 -140 -77c-33 0 -48 9 -75 28c0 -64 31 -130 31 -166c0 -35 -23 -64 -60 -64
c-36 0 -55 24 -55 59c0 41 37 125 37 211v402z" />
    <glyph glyph-name="Ugrave" unicode="&#xd9;" horiz-adv-x="722" 
d="M479 644v18h228v-18c-89 0 -93 -32 -93 -114v-290c0 -94 -26 -255 -258 -255c-166 0 -245 79 -245 227v325c0 81 0 107 -94 107v18h347v-18c-94 0 -94 -26 -94 -107v-359c0 -74 24 -144 138 -144c126 0 164 108 164 198v298c0 82 -4 114 -93 114zM213 885h147l57 -169
h-42z" />
    <glyph glyph-name="Egrave" unicode="&#xc8;" horiz-adv-x="667" 
d="M273 624v-270c115 0 125 66 141 157h18v-350h-18c-16 91 -26 157 -141 157v-178c0 -84 0 -102 69 -102c94 0 212 0 262 172h18l-30 -210h-572v18c94 0 94 26 94 107v412c0 81 0 107 -94 107v18h554v-196h-18c-29 148 -97 158 -228 158h-55zM185 885h147l57 -169h-42z" />
    <glyph glyph-name="Scaron" unicode="&#x160;" horiz-adv-x="556" 
d="M475 677v-220h-18c-11 89 -91 182 -186 182c-55 0 -111 -27 -111 -88c0 -135 358 -141 358 -362c0 -125 -109 -204 -227 -204c-52 0 -85 10 -131 30c-10 4 -26 9 -37 9c-23 0 -43 -19 -50 -39h-18v250h18c15 -107 99 -216 214 -216c57 0 120 34 120 97
c0 153 -353 147 -353 371c0 112 96 190 203 190c48 0 79 -9 121 -30c14 -7 29 -15 45 -15c27 0 29 24 34 45h18zM224 703l-102 186h38l119 -100l119 100h38l-102 -186h-110z" />
    <glyph glyph-name="otilde" unicode="&#xf5;" 
d="M250 -14c-137 0 -214 114 -214 242s77 242 214 242s214 -114 214 -242s-77 -242 -214 -242zM250 20c62 0 71 62 71 208s-9 208 -71 208s-71 -62 -71 -208s9 -208 71 -208zM380 668h28c0 -82 -38 -136 -105 -136c-48 0 -100 46 -142 46c-24 0 -34 -25 -40 -45h-28
c0 82 38 136 105 136c48 0 100 -46 142 -46c24 0 34 25 40 45z" />
    <glyph glyph-name="Ntilde" unicode="&#xd1;" horiz-adv-x="722" 
d="M249 662l324 -406h2v306c0 55 -27 82 -94 82v18h225v-18c-67 0 -94 -27 -94 -82v-577h-16l-446 549h-2v-434c0 -55 27 -82 94 -82v-18h-225v18c67 0 94 27 94 82v483c-32 41 -48 61 -96 61v18h234zM491 856h28c0 -82 -38 -136 -105 -136c-48 0 -100 46 -142 46
c-24 0 -34 -25 -40 -45h-28c0 82 38 136 105 136c48 0 100 -46 142 -46c24 0 34 25 40 45z" />
    <glyph glyph-name="Uacute" unicode="&#xda;" horiz-adv-x="722" 
d="M479 644v18h228v-18c-89 0 -93 -32 -93 -114v-290c0 -94 -26 -255 -258 -255c-166 0 -245 79 -245 227v325c0 81 0 107 -94 107v18h347v-18c-94 0 -94 -26 -94 -107v-359c0 -74 24 -144 138 -144c126 0 164 108 164 198v298c0 82 -4 114 -93 114zM522 885l-162 -169h-42
l57 169h147z" />
    <glyph glyph-name="Acircumflex" unicode="&#xc2;" horiz-adv-x="722" 
d="M416 189h-232l-23 -53c-10 -24 -19 -44 -19 -63c0 -48 38 -52 88 -55v-18h-221v18c68 5 97 87 121 140l231 518h10l243 -553c19 -43 43 -105 99 -105v-18h-321v18c28 0 78 0 78 32c0 17 -4 24 -10 39zM401 225l-99 227l-101 -227h200zM417 888l102 -186h-38l-119 100
l-119 -100h-38l102 186h110z" />
    <glyph glyph-name="ocircumflex" unicode="&#xf4;" 
d="M250 -14c-137 0 -214 114 -214 242s77 242 214 242s214 -114 214 -242s-77 -242 -214 -242zM250 20c62 0 71 62 71 208s-9 208 -71 208s-71 -62 -71 -208s9 -208 71 -208zM306 697l102 -186h-38l-119 100l-119 -100h-38l102 186h110z" />
    <glyph glyph-name="ydieresis" unicode="&#xff;" 
d="M237 324l73 -167l49 127c10 27 33 84 33 113c0 33 -26 41 -54 41v18h153v-18c-31 0 -41 -9 -68 -78l-190 -481c-21 -53 -59 -95 -114 -95c-46 0 -91 29 -91 79c0 35 23 66 60 66c40 0 55 -29 55 -64c0 -11 0 -29 14 -29c28 0 45 34 85 146l-141 328
c-26 61 -51 128 -93 128v18h243v-18c-21 0 -43 -6 -43 -30c0 -18 20 -64 29 -84zM106 603c0 36 29 65 65 65s65 -29 65 -65s-29 -65 -65 -65s-65 29 -65 65zM289 603c0 36 29 65 65 65s65 -29 65 -65s-29 -65 -65 -65s-65 29 -65 65z" />
    <glyph glyph-name="Eacute" unicode="&#xc9;" horiz-adv-x="667" 
d="M273 624v-270c115 0 125 66 141 157h18v-350h-18c-16 91 -26 157 -141 157v-178c0 -84 0 -102 69 -102c94 0 212 0 262 172h18l-30 -210h-572v18c94 0 94 26 94 107v412c0 81 0 107 -94 107v18h554v-196h-18c-29 148 -97 158 -228 158h-55zM482 885l-162 -169h-42l57 169
h147z" />
    <glyph glyph-name="Ograve" unicode="&#xd2;" horiz-adv-x="778" 
d="M389 -15c-202 0 -352 141 -352 346s150 346 352 346s352 -141 352 -346s-150 -346 -352 -346zM389 23c154 0 176 191 176 308s-22 308 -176 308s-176 -191 -176 -308s22 -308 176 -308zM241 885h147l57 -169h-42z" />
    <glyph glyph-name="acircumflex" unicode="&#xe2;" 
d="M285 289v81c0 48 -36 62 -62 62c-21 0 -64 -8 -64 -35c0 -19 32 -31 32 -63c0 -38 -30 -59 -66 -59c-35 0 -71 25 -71 63c0 92 127 132 202 132c114 0 166 -56 166 -154v-222c0 -24 0 -46 21 -46c12 0 19 9 26 18l14 -11c-25 -40 -60 -69 -109 -69c-48 0 -85 23 -89 73
c-39 -36 -93 -73 -149 -73c-52 0 -91 37 -91 94c0 82 55 122 240 209zM285 95v153c-43 -24 -108 -73 -108 -127c0 -31 22 -53 53 -53c23 0 38 13 55 27zM306 697l102 -186h-38l-119 100l-119 -100h-38l102 186h110z" />
    <glyph glyph-name="multiply" unicode="&#xd7;" horiz-adv-x="570" 
d="M115 547l170 -170l170 170l46 -46l-170 -170l170 -170l-46 -45l-170 170l-170 -170l-46 45l170 170l-170 170z" />
    <glyph glyph-name="divide" unicode="&#xf7;" horiz-adv-x="570" 
d="M18 363h534v-64h-534v64zM235 170c0 28 22 50 50 50s50 -22 50 -50s-22 -50 -50 -50s-50 22 -50 50zM235 492c0 28 22 50 50 50s50 -22 50 -50s-22 -50 -50 -50s-50 22 -50 50z" />
    <glyph glyph-name="ccedilla" unicode="&#xe7;" horiz-adv-x="444" 
d="M380 -6c-16 -14 -29 -36 -29 -57c0 -72 70 -111 134 -112l14 -16c-32 -23 -58 -35 -98 -35c-65 0 -136 48 -136 120c0 55 37 85 72 104c-32 12 -46 34 -51 69c-41 -35 -94 -73 -150 -73c-52 0 -91 37 -91 89c0 107 162 169 241 206v45c0 47 0 99 -62 99
c-20 0 -65 -8 -65 -35c0 -19 32 -34 32 -65c0 -37 -31 -58 -65 -58c-35 0 -72 23 -72 62c0 97 132 133 209 133c61 0 130 -25 152 -87c7 -21 7 -72 7 -94v-178c0 -15 -4 -55 21 -55c11 0 20 10 26 18l14 -11c-30 -44 -57 -64 -103 -69zM286 103v153
c-43 -25 -107 -72 -107 -128c0 -29 20 -52 50 -52c21 0 41 14 57 27z" />
    <glyph glyph-name="twosuperior" unicode="&#xb2;" horiz-adv-x="300" 
d="M252 324h-241v9c129 142 150 162 150 217c0 36 -24 61 -58 61c-25 0 -48 -12 -66 -40l-20 6c21 63 63 99 128 99c51 0 112 -33 112 -91c0 -68 -93 -146 -143 -187l-2 -2h62c51 0 66 0 80 32h21z" />
    <glyph glyph-name="ugrave" unicode="&#xf9;" horiz-adv-x="556" 
d="M476 456v-351c0 -55 0 -87 54 -87v-18h-191v58l-2 -2c-31 -38 -77 -70 -134 -70c-79 0 -121 62 -121 146v217c0 53 0 89 -55 89v18h192v-321c0 -35 0 -83 42 -83c37 0 59 34 78 61v236c0 53 0 89 -55 89v18h192zM130 684h147l57 -169h-42z" />
    <glyph glyph-name="Agrave" unicode="&#xc0;" horiz-adv-x="722" 
d="M416 189h-232l-23 -53c-10 -24 -19 -44 -19 -63c0 -48 38 -52 88 -55v-18h-221v18c68 5 97 87 121 140l231 518h10l243 -553c19 -43 43 -105 99 -105v-18h-321v18c28 0 78 0 78 32c0 17 -4 24 -10 39zM401 225l-99 227l-101 -227h200zM213 885h147l57 -169h-42z" />
    <glyph glyph-name="Ucircumflex" unicode="&#xdb;" horiz-adv-x="722" 
d="M479 644v18h228v-18c-89 0 -93 -32 -93 -114v-290c0 -94 -26 -255 -258 -255c-166 0 -245 79 -245 227v325c0 81 0 107 -94 107v18h347v-18c-94 0 -94 -26 -94 -107v-359c0 -74 24 -144 138 -144c126 0 164 108 164 198v298c0 82 -4 114 -93 114zM417 888l102 -186h-38
l-119 100l-119 -100h-38l102 186h110z" />
    <glyph glyph-name="zcaron" unicode="&#x17e;" horiz-adv-x="444" 
d="M411 0h-398v11l250 415h-61c-92 0 -113 -8 -138 -102h-18v132h385v-13l-250 -413c122 0 193 3 229 126h16zM189 511l-102 186h38l119 -100l119 100h38l-102 -186h-110z" />
    <glyph glyph-name="Ydieresis" unicode="&#x178;" horiz-adv-x="722" 
d="M441 274v-149c0 -90 0 -107 107 -107v-18h-373v18c107 0 107 17 107 107v121l-166 300c-44 80 -57 98 -106 98v18h317v-18c-32 0 -65 0 -65 -31c0 -16 21 -52 29 -66l129 -236l132 222c10 17 31 51 31 71c0 34 -44 40 -73 40v18h201v-18c-57 0 -83 -58 -117 -115z
M205 793c0 36 29 65 65 65s65 -29 65 -65s-29 -65 -65 -65s-65 29 -65 65zM388 793c0 36 29 65 65 65s65 -29 65 -65s-29 -65 -65 -65s-65 29 -65 65z" />
    <glyph glyph-name="Adieresis" unicode="&#xc4;" horiz-adv-x="722" 
d="M416 189h-232l-23 -53c-10 -24 -19 -44 -19 -63c0 -48 38 -52 88 -55v-18h-221v18c68 5 97 87 121 140l231 518h10l243 -553c19 -43 43 -105 99 -105v-18h-321v18c28 0 78 0 78 32c0 17 -4 24 -10 39zM401 225l-99 227l-101 -227h200zM205 793c0 36 29 65 65 65
s65 -29 65 -65s-29 -65 -65 -65s-65 29 -65 65zM388 793c0 36 29 65 65 65s65 -29 65 -65s-29 -65 -65 -65s-65 29 -65 65z" />
    <glyph glyph-name="Icircumflex" unicode="&#xce;" horiz-adv-x="389" 
d="M274 537v-412c0 -81 0 -107 94 -107v-18h-347v18c94 0 94 26 94 107v412c0 81 0 107 -94 107v18h347v-18c-94 0 -94 -26 -94 -107zM250 888l102 -186h-38l-119 100l-119 -100h-38l102 186h110z" />
    <glyph glyph-name="idieresis" unicode="&#xef;" horiz-adv-x="278" 
d="M211 456v-351c0 -55 0 -87 54 -87v-18h-246v18c55 0 55 32 55 87v244c0 53 0 89 -55 89v18h192zM-17 603c0 36 29 65 65 65s65 -29 65 -65s-29 -65 -65 -65s-65 29 -65 65zM166 603c0 36 29 65 65 65s65 -29 65 -65s-29 -65 -65 -65s-65 29 -65 65z" />
    <glyph glyph-name="Oacute" unicode="&#xd3;" horiz-adv-x="778" 
d="M389 -15c-202 0 -352 141 -352 346s150 346 352 346s352 -141 352 -346s-150 -346 -352 -346zM389 23c154 0 176 191 176 308s-22 308 -176 308s-176 -191 -176 -308s22 -308 176 -308zM538 885l-162 -169h-42l57 169h147z" />
    <glyph glyph-name="aring" unicode="&#xe5;" 
d="M285 289v81c0 48 -36 62 -62 62c-21 0 -64 -8 -64 -35c0 -19 32 -31 32 -63c0 -38 -30 -59 -66 -59c-35 0 -71 25 -71 63c0 92 127 132 202 132c114 0 166 -56 166 -154v-222c0 -24 0 -46 21 -46c12 0 19 9 26 18l14 -11c-25 -40 -60 -69 -109 -69c-48 0 -85 23 -89 73
c-39 -36 -93 -73 -149 -73c-52 0 -91 37 -91 94c0 82 55 122 240 209zM285 95v153c-43 -24 -108 -73 -108 -127c0 -31 22 -53 53 -53c23 0 38 13 55 27zM148 599c0 57 46 103 103 103s103 -46 103 -103s-46 -103 -103 -103s-103 46 -103 103zM186 599c0 -36 29 -65 65 -65
s65 29 65 65s-29 65 -65 65s-65 -29 -65 -65z" />
    <glyph glyph-name="Yacute" unicode="&#xdd;" horiz-adv-x="722" 
d="M441 274v-149c0 -90 0 -107 107 -107v-18h-373v18c107 0 107 17 107 107v121l-166 300c-44 80 -57 98 -106 98v18h317v-18c-32 0 -65 0 -65 -31c0 -16 21 -52 29 -66l129 -236l132 222c10 17 31 51 31 71c0 34 -44 40 -73 40v18h201v-18c-57 0 -83 -58 -117 -115z
M546 885l-162 -169h-42l57 169h147z" />
    <glyph glyph-name="trademark" unicode="&#x2122;" horiz-adv-x="1000" 
d="M249 637v-277c0 -45 0 -74 51 -74v-18h-222v18c51 0 51 29 51 74v277c-78 0 -110 -15 -112 -85h-18v110h380v-110h-18c-2 70 -34 85 -112 85zM430 662h180l113 -242l112 242h169v-18c-49 0 -49 -19 -49 -78v-206c0 -50 0 -74 49 -74v-18h-225v18c56 0 56 24 56 74v231
l-2 -2l-154 -321h-12l-153 321l-2 2v-231c0 -50 0 -74 56 -74v-18h-138v18c54 0 54 24 54 74v207c0 58 0 77 -54 77v18z" />
    <glyph glyph-name="threesuperior" unicode="&#xb3;" horiz-adv-x="300" 
d="M40 581l-20 7c28 54 71 88 131 88c44 0 100 -25 100 -76c0 -29 -23 -53 -46 -65v-2c38 -17 64 -44 64 -86c0 -51 -43 -130 -165 -130c-24 0 -98 3 -98 42c0 21 20 32 39 32c37 0 58 -45 102 -45c27 0 46 23 46 49c0 53 -50 90 -109 100v13c56 10 77 33 77 63
c0 31 -28 48 -56 48s-48 -15 -65 -38z" />
    <glyph glyph-name="Zcaron" unicode="&#x17d;" horiz-adv-x="667" 
d="M610 662l-390 -624h140c116 0 226 22 272 201h18l-27 -239h-607l388 624h-154c-94 0 -158 -100 -163 -156h-18l18 194h523zM277 703l-102 186h38l119 -100l119 100h38l-102 -186h-110z" />
    <glyph glyph-name="threequarters" unicode="&#xbe;" horiz-adv-x="750" 
d="M462 117l188 221h45v-220h35v-57h-35v-76h-88v76h-145v56zM654 677l-460 -692h-66l460 692h66zM505 118h102v119zM40 581l-20 7c28 54 71 88 131 88c44 0 100 -25 100 -76c0 -29 -23 -53 -46 -65v-2c38 -17 64 -44 64 -86c0 -51 -43 -130 -165 -130c-24 0 -98 3 -98 42
c0 21 20 32 39 32c37 0 58 -45 102 -45c27 0 46 23 46 49c0 53 -50 90 -109 100v13c56 10 77 33 77 63c0 31 -28 48 -56 48s-48 -15 -65 -38z" />
    <glyph glyph-name="Euro" unicode="&#x20ac;" 
d="M415 360h-227c-1 -14 -1 -27 -1 -41h217l-11 -38h-206c3 -77 15 -249 125 -249c81 0 112 53 149 114l23 -17c-49 -86 -94 -143 -201 -143c-167 0 -234 151 -245 295h-49l11 38h36c0 14 0 27 1 41h-48l11 38h41c21 145 122 278 279 278c67 0 94 -14 151 -43v-146h-19
c-5 72 -39 149 -122 149c-102 0 -131 -161 -139 -238h235z" />
    <glyph glyph-name="ograve" unicode="&#xf2;" 
d="M250 -14c-137 0 -214 114 -214 242s77 242 214 242s214 -114 214 -242s-77 -242 -214 -242zM250 20c62 0 71 62 71 208s-9 208 -71 208s-71 -62 -71 -208s9 -208 71 -208zM102 684h147l57 -169h-42z" />
    <glyph glyph-name="udieresis" unicode="&#xfc;" horiz-adv-x="556" 
d="M476 456v-351c0 -55 0 -87 54 -87v-18h-191v58l-2 -2c-31 -38 -77 -70 -134 -70c-79 0 -121 62 -121 146v217c0 53 0 89 -55 89v18h192v-321c0 -35 0 -83 42 -83c37 0 59 34 78 61v236c0 53 0 89 -55 89v18h192zM122 603c0 36 29 65 65 65s65 -29 65 -65s-29 -65 -65 -65
s-65 29 -65 65zM305 603c0 36 29 65 65 65s65 -29 65 -65s-29 -65 -65 -65s-65 29 -65 65z" />
    <glyph glyph-name="edieresis" unicode="&#xeb;" horiz-adv-x="444" 
d="M418 243h-250c0 -73 40 -182 131 -182c49 0 79 37 103 75l16 -11c-40 -81 -90 -139 -187 -139c-137 0 -195 115 -195 242c0 128 77 242 214 242c110 0 170 -120 168 -227zM165 277h133c0 51 0 159 -62 159c-58 0 -71 -86 -71 -159zM81 603c0 36 29 65 65 65
s65 -29 65 -65s-29 -65 -65 -65s-65 29 -65 65zM264 603c0 36 29 65 65 65s65 -29 65 -65s-29 -65 -65 -65s-65 29 -65 65z" />
    <glyph glyph-name="plusminus" unicode="&#xb1;" horiz-adv-x="570" 
d="M253 128v171h-235v64h235v235h64v-235h235v-64h-235v-171h235v-64h-534v64h235z" />
    <glyph glyph-name="aacute" unicode="&#xe1;" 
d="M285 289v81c0 48 -36 62 -62 62c-21 0 -64 -8 -64 -35c0 -19 32 -31 32 -63c0 -38 -30 -59 -66 -59c-35 0 -71 25 -71 63c0 92 127 132 202 132c114 0 166 -56 166 -154v-222c0 -24 0 -46 21 -46c12 0 19 9 26 18l14 -11c-25 -40 -60 -69 -109 -69c-48 0 -85 23 -89 73
c-39 -36 -93 -73 -149 -73c-52 0 -91 37 -91 94c0 82 55 122 240 209zM285 95v153c-43 -24 -108 -73 -108 -127c0 -31 22 -53 53 -53c23 0 38 13 55 27zM399 684l-162 -169h-42l57 169h147z" />
    <glyph glyph-name="Idieresis" unicode="&#xcf;" horiz-adv-x="389" 
d="M274 537v-412c0 -81 0 -107 94 -107v-18h-347v18c94 0 94 26 94 107v412c0 81 0 107 -94 107v18h347v-18c-94 0 -94 -26 -94 -107zM38 793c0 36 29 65 65 65s65 -29 65 -65s-29 -65 -65 -65s-65 29 -65 65zM221 793c0 36 29 65 65 65s65 -29 65 -65s-29 -65 -65 -65
s-65 29 -65 65z" />
    <glyph glyph-name="igrave" unicode="&#xec;" horiz-adv-x="278" 
d="M211 456v-351c0 -55 0 -87 54 -87v-18h-246v18c55 0 55 32 55 87v244c0 53 0 89 -55 89v18h192zM-9 684h147l57 -169h-42z" />
    <glyph glyph-name="Iacute" unicode="&#xcd;" horiz-adv-x="389" 
d="M274 537v-412c0 -81 0 -107 94 -107v-18h-347v18c94 0 94 26 94 107v412c0 81 0 107 -94 107v18h347v-18c-94 0 -94 -26 -94 -107zM343 885l-162 -169h-42l57 169h147z" />
    <glyph glyph-name="copyright" unicode="&#xa9;" horiz-adv-x="747" 
d="M537 541v-130h-18c-9 59 -58 105 -119 105c-102 0 -128 -96 -128 -180c0 -104 34 -180 127 -180c48 0 96 29 125 68v-35c-39 -43 -100 -62 -157 -62c-119 0 -204 80 -204 201c0 126 94 213 218 213c29 0 54 -6 74 -13c20 -6 34 -13 41 -13c14 0 22 12 23 26h18zM720 331
c0 -191 -155 -346 -346 -346s-347 155 -347 346s156 346 347 346s346 -155 346 -346zM676 331c0 167 -135 303 -302 303s-303 -136 -303 -303s136 -303 303 -303s302 136 302 303z" />
    <glyph glyph-name="adieresis" unicode="&#xe4;" 
d="M285 289v81c0 48 -36 62 -62 62c-21 0 -64 -8 -64 -35c0 -19 32 -31 32 -63c0 -38 -30 -59 -66 -59c-35 0 -71 25 -71 63c0 92 127 132 202 132c114 0 166 -56 166 -154v-222c0 -24 0 -46 21 -46c12 0 19 9 26 18l14 -11c-25 -40 -60 -69 -109 -69c-48 0 -85 23 -89 73
c-39 -36 -93 -73 -149 -73c-52 0 -91 37 -91 94c0 82 55 122 240 209zM285 95v153c-43 -24 -108 -73 -108 -127c0 -31 22 -53 53 -53c23 0 38 13 55 27zM94 603c0 36 29 65 65 65s65 -29 65 -65s-29 -65 -65 -65s-65 29 -65 65zM277 603c0 36 29 65 65 65s65 -29 65 -65
s-29 -65 -65 -65s-65 29 -65 65z" />
    <glyph glyph-name="agrave" unicode="&#xe0;" 
d="M285 289v81c0 48 -36 62 -62 62c-21 0 -64 -8 -64 -35c0 -19 32 -31 32 -63c0 -38 -30 -59 -66 -59c-35 0 -71 25 -71 63c0 92 127 132 202 132c114 0 166 -56 166 -154v-222c0 -24 0 -46 21 -46c12 0 19 9 26 18l14 -11c-25 -40 -60 -69 -109 -69c-48 0 -85 23 -89 73
c-39 -36 -93 -73 -149 -73c-52 0 -91 37 -91 94c0 82 55 122 240 209zM285 95v153c-43 -24 -108 -73 -108 -127c0 -31 22 -53 53 -53c23 0 38 13 55 27zM102 684h147l57 -169h-42z" />
    <glyph glyph-name="scaron" unicode="&#x161;" horiz-adv-x="389" 
d="M324 470l7 -157h-18c-23 57 -61 119 -123 119c-24 0 -49 -17 -49 -42c0 -70 214 -118 214 -248c0 -91 -65 -156 -148 -156c-24 0 -47 7 -66 13c-18 7 -33 13 -42 13c-14 0 -23 -13 -26 -26h-18l-8 166h18c15 -57 69 -128 133 -128c28 0 52 19 52 49
c0 85 -209 121 -209 257c0 84 64 140 143 140c24 0 43 -6 57 -12c15 -7 26 -13 34 -13c19 0 23 11 31 25h18zM137 511l-102 186h38l119 -100l119 100h38l-102 -186h-110z" />
    <glyph glyph-name="Igrave" unicode="&#xcc;" horiz-adv-x="389" 
d="M274 537v-412c0 -81 0 -107 94 -107v-18h-347v18c94 0 94 26 94 107v412c0 81 0 107 -94 107v18h347v-18c-94 0 -94 -26 -94 -107zM46 885h147l57 -169h-42z" />
    <glyph glyph-name="Ocircumflex" unicode="&#xd4;" horiz-adv-x="778" 
d="M389 -15c-202 0 -352 141 -352 346s150 346 352 346s352 -141 352 -346s-150 -346 -352 -346zM389 23c154 0 176 191 176 308s-22 308 -176 308s-176 -191 -176 -308s22 -308 176 -308zM445 888l102 -186h-38l-119 100l-119 -100h-38l102 186h110z" />
    <glyph glyph-name="Thorn" unicode="&#xde;" horiz-adv-x="611" 
d="M114 125v412c0 81 0 107 -94 107v18h342v-18c-94 0 -94 -26 -94 -107v-23h82c154 0 230 -78 230 -183c0 -125 -112 -181 -240 -181h-72v-25c0 -81 0 -107 94 -107v-18h-342v18c94 0 94 26 94 107zM268 476v-288h24c116 0 124 78 124 143c0 103 -42 145 -122 145h-26z" />
    <glyph glyph-name="egrave" unicode="&#xe8;" horiz-adv-x="444" 
d="M418 243h-250c0 -73 40 -182 131 -182c49 0 79 37 103 75l16 -11c-40 -81 -90 -139 -187 -139c-137 0 -195 115 -195 242c0 128 77 242 214 242c110 0 170 -120 168 -227zM165 277h133c0 51 0 159 -62 159c-58 0 -71 -86 -71 -159zM74 684h147l57 -169h-42z" />
    <glyph glyph-name="atilde" unicode="&#xe3;" 
d="M285 289v81c0 48 -36 62 -62 62c-21 0 -64 -8 -64 -35c0 -19 32 -31 32 -63c0 -38 -30 -59 -66 -59c-35 0 -71 25 -71 63c0 92 127 132 202 132c114 0 166 -56 166 -154v-222c0 -24 0 -46 21 -46c12 0 19 9 26 18l14 -11c-25 -40 -60 -69 -109 -69c-48 0 -85 23 -89 73
c-39 -36 -93 -73 -149 -73c-52 0 -91 37 -91 94c0 82 55 122 240 209zM285 95v153c-43 -24 -108 -73 -108 -127c0 -31 22 -53 53 -53c23 0 38 13 55 27zM380 668h28c0 -82 -38 -136 -105 -136c-48 0 -100 46 -142 46c-24 0 -34 -25 -40 -45h-28c0 82 38 136 105 136
c48 0 100 -46 142 -46c24 0 34 25 40 45z" />
    <glyph glyph-name="Udieresis" unicode="&#xdc;" horiz-adv-x="722" 
d="M479 644v18h228v-18c-89 0 -93 -32 -93 -114v-290c0 -94 -26 -255 -258 -255c-166 0 -245 79 -245 227v325c0 81 0 107 -94 107v18h347v-18c-94 0 -94 -26 -94 -107v-359c0 -74 24 -144 138 -144c126 0 164 108 164 198v298c0 82 -4 114 -93 114zM205 793
c0 36 29 65 65 65s65 -29 65 -65s-29 -65 -65 -65s-65 29 -65 65zM388 793c0 36 29 65 65 65s65 -29 65 -65s-29 -65 -65 -65s-65 29 -65 65z" />
    <glyph glyph-name="ecircumflex" unicode="&#xea;" horiz-adv-x="444" 
d="M418 243h-250c0 -73 40 -182 131 -182c49 0 79 37 103 75l16 -11c-40 -81 -90 -139 -187 -139c-137 0 -195 115 -195 242c0 128 77 242 214 242c110 0 170 -120 168 -227zM165 277h133c0 51 0 159 -62 159c-58 0 -71 -86 -71 -159zM278 697l102 -186h-38l-119 100
l-119 -100h-38l102 186h110z" />
  </font>
</defs>
</svg>
